<?xml version="1.0" encoding="utf-8"?>
<!-- Generator: Adobe Illustrator 23.0.1, SVG Export Plug-In . SVG Version: 6.00 Build 0)  -->
<svg version="1.1" id="Layer_1" xmlns="http://www.w3.org/2000/svg" xmlns:xlink="http://www.w3.org/1999/xlink" x="0px" y="0px"
	 viewBox="0 0 432 432" style="enable-background:new 0 0 432 432;" xml:space="preserve">
<path d="M195.03,268.45c1.58-25.19,9.96-44.51,25.64-59.04c12.79-11.86,28.3-17.87,46.11-17.87c0.52,0,1.06,0.09,1.58,0.1V80.29
	c0-16.81-13.69-30.49-30.51-30.49H54.89c-16.82,0-30.51,13.69-30.51,30.49v182.66c0,4.2,0.86,8.21,2.4,11.85
	c4.64,10.94,15.49,18.64,28.09,18.64h0.02h141.16C195.02,285.15,194.51,276.83,195.03,268.45z M74.71,221.93
	c8.03-38.27,30.24-76.39,85.99-84.13v-30.53l57.33,53.46l-57.33,53.6v-31.39C120.86,182.94,94.63,195.12,74.71,221.93z"/>
<path d="M401.32,241.47c-9-24.14-28.13-43.17-56.04-39.01c-0.29,0.04-1.58-0.4-30.45,8.09c37.21-21.39,35.85-61.63,35.85-61.63
	c-44.11,10.08-44.11,48.65-46.84,60.94c-0.33-0.08-0.63-0.05-0.97-0.15c-9.05-2.55-18.11-5.62-27.38-6.74
	c-2.94-0.36-5.85-0.54-8.7-0.54c-14.32,0-27.52,4.59-38.71,14.97c-15.02,13.93-20.94,31.96-22.18,51.74
	c-1.72,27.41,5.83,52.7,18.99,76.45c6.1,11.02,12.73,21.75,22.33,30.23c9.86,8.71,21.2,13.12,32.87,13.12
	c8.1,0,16.37-2.12,24.41-6.4c0.49-0.26,1.15-0.38,1.84-0.38c0.93,0,1.92,0.21,2.61,0.58c8.02,4.2,15.95,6.29,23.77,6.29
	c9.2,0,18.26-2.89,27.18-8.62c8.31-5.34,14.39-12.85,19.82-20.97c16.8-25.08,27.27-52.26,27.74-82.79
	C407.64,264.61,405.64,253.06,401.32,241.47z"/>
</svg>
