<?xml version="1.0" encoding="UTF-8" standalone="no"?>
<!DOCTYPE svg PUBLIC "-//W3C//DTD SVG 1.1//EN" "http://www.w3.org/Graphics/SVG/1.1/DTD/svg11.dtd">
<svg width="100%" height="100%" viewBox="0 0 193 186" version="1.1" xmlns="http://www.w3.org/2000/svg" xmlns:xlink="http://www.w3.org/1999/xlink" xml:space="preserve" xmlns:serif="http://www.serif.com/" style="fill-rule:evenodd;clip-rule:evenodd;stroke-linejoin:round;stroke-miterlimit:1.41421;">
    <g transform="matrix(1,0,0,1,0.618034,0.618034)">
        <g transform="matrix(1,0,0,1,-34.5,-16.5)">
            <g id="corcht" transform="matrix(1,0,0,1,34.5,16.5)">
                <path d="M190.5,0.5L190.5,183.5L152.5,183.5L152.5,169.5L173.5,169.5L173.5,14.5L152.5,14.5L152.5,0.5L190.5,0.5ZM38.5,14.5L17.5,14.5L17.5,169.5L38.5,169.5L38.5,183.5L0.5,183.5L0.5,0.5L38.5,0.5L38.5,14.5ZM142.5,139L142.5,148L48.5,148L48.5,139L142.5,139ZM142.5,105L142.5,114L48.5,114L48.5,105L142.5,105ZM142.5,71L142.5,80L48.5,80L48.5,71L142.5,71ZM142.5,37L142.5,46L48.5,46L48.5,37L142.5,37Z" style="fill-rule:nonzero;stroke:black;stroke-width:2.24px;"/>
            </g>
        </g>
    </g>
</svg>
