<?xml version="1.0" encoding="utf-8"?>
<!-- Generator: Adobe Illustrator 23.0.1, SVG Export Plug-In . SVG Version: 6.00 Build 0)  -->
<svg version="1.1" id="Layer_1" xmlns="http://www.w3.org/2000/svg" xmlns:xlink="http://www.w3.org/1999/xlink" x="0px" y="0px"
	 viewBox="0 0 432 432" style="enable-background:new 0 0 432 432;" xml:space="preserve">
<style type="text/css">
	.st0{fill:none;}
</style>
<g>
	<path class="st0" d="M235.94,147.24l30.37,30.37h21.96h1.66v-75.04H37v161.84h84.64l0-1.66l0.07-90.14
		c0-13.99,11.31-25.36,25.2-25.36H235.94z"/>
	<polygon class="st0" points="289.93,197.95 288.27,197.95 141.91,197.95 141.91,262.75 141.91,264.41 141.91,284.76 141.91,359.79 
		394.83,359.79 394.83,197.95 310.29,197.95 	"/>
	<path d="M389.83,177.61h-79.54v-70.03c0-13.97-11.38-25.35-25.36-25.35H161.4l-30.37-30.37H42.01c-13.89,0-25.2,11.38-25.2,25.36
		l-0.15,182.18c0,13.97,11.38,25.35,25.35,25.35h79.62l-0.06,70.03c0,13.97,11.38,25.35,25.35,25.35h242.92
		c13.99,0,25.36-11.38,25.36-25.35V202.96C415.19,188.99,403.82,177.61,389.83,177.61z M121.71,172.61l-0.07,90.14l0,1.66H37V102.57
		h252.92v75.04h-1.66h-21.96l-30.37-30.37h-89.03C133.03,147.24,121.71,158.62,121.71,172.61z M394.83,359.79H141.91v-75.04v-20.34
		v-1.66v-64.8h146.36h1.66h20.36h84.55V359.79z"/>
</g>
</svg>
