<?xml version="1.0" encoding="UTF-8" standalone="no"?>
<!DOCTYPE svg PUBLIC "-//W3C//DTD SVG 1.1//EN" "http://www.w3.org/Graphics/SVG/1.1/DTD/svg11.dtd">
<svg width="100%" height="100%" viewBox="0 0 523 301" version="1.1" xmlns="http://www.w3.org/2000/svg" xmlns:xlink="http://www.w3.org/1999/xlink" xml:space="preserve" xmlns:serif="http://www.serif.com/" style="fill-rule:evenodd;clip-rule:evenodd;stroke-linejoin:round;stroke-miterlimit:1.41421;">
    <g transform="matrix(1,0,0,1,-132.5,-89.5)">
        <g transform="matrix(1,0,0,1,244,90)">
            <path d="M243.75,0L56.25,0C52.794,0 50,2.794 50,6.25L50,293.75C50,297.206 52.794,300 56.25,300L243.75,300C247.206,300 250,297.206 250,293.75L250,256.25L250,193.75L250,131.25L250,68.75L250,6.25C250,2.794 247.206,0 243.75,0ZM237.5,125L62.5,125L62.5,75L237.5,75L237.5,125ZM237.5,187.5L62.5,187.5L62.5,137.5L237.5,137.5L237.5,187.5ZM62.5,200L237.5,200L237.5,250L62.5,250L62.5,200ZM62.5,12.5L237.5,12.5L237.5,62.5L62.5,62.5L62.5,12.5ZM237.5,287.5L62.5,287.5L62.5,281.5L237.5,281.5L237.5,287.5Z" style="fill:white;fill-rule:nonzero;stroke:rgb(255,247,247);stroke-width:1px;"/>
        </g>
        <g transform="matrix(1,0,0,1,244,90)">
            <path d="M162.5,31.25L87.5,31.25C84.044,31.25 81.25,34.044 81.25,37.5C81.25,40.956 84.044,43.75 87.5,43.75L162.5,43.75C165.956,43.75 168.75,40.956 168.75,37.5C168.75,34.044 165.956,31.25 162.5,31.25Z" style="fill:white;fill-rule:nonzero;stroke:rgb(255,247,247);stroke-width:1px;"/>
        </g>
        <g transform="matrix(1,0,0,1,244,90)">
            <path d="M87.5,106.25L162.5,106.25C165.956,106.25 168.75,103.456 168.75,100C168.75,96.544 165.956,93.75 162.5,93.75L87.5,93.75C84.044,93.75 81.25,96.544 81.25,100C81.25,103.456 84.044,106.25 87.5,106.25Z" style="fill:white;fill-rule:nonzero;stroke:rgb(255,247,247);stroke-width:1px;"/>
        </g>
        <g transform="matrix(1,0,0,1,244,90)">
            <g transform="matrix(0.877193,0,0,1,28.5088,7.10543e-14)">
                <rect x="181.25" y="143.75" width="42.75" height="37.5" style="fill:white;stroke:rgb(255,247,247);stroke-width:1.06px;stroke-linecap:round;stroke-miterlimit:1.5;"/>
            </g>
        </g>
        <g transform="matrix(1,0,0,1,244,90)">
            <path d="M87.5,168.75L162.5,168.75C165.956,168.75 168.75,165.956 168.75,162.5C168.75,159.044 165.956,156.25 162.5,156.25L87.5,156.25C84.044,156.25 81.25,159.044 81.25,162.5C81.25,165.956 84.044,168.75 87.5,168.75Z" style="fill:white;fill-rule:nonzero;stroke:rgb(255,247,247);stroke-width:1px;"/>
        </g>
        <g transform="matrix(1,0,0,1,244,90)">
            <path d="M162.5,218.75L87.5,218.75C84.044,218.75 81.25,221.544 81.25,225C81.25,228.456 84.044,231.25 87.5,231.25L162.5,231.25C165.956,231.25 168.75,228.456 168.75,225C168.75,221.544 165.956,218.75 162.5,218.75Z" style="fill:white;fill-rule:nonzero;stroke:rgb(255,247,247);stroke-width:1px;"/>
        </g>
        <g transform="matrix(1,0,0,1,244,90)">
            <g transform="matrix(0.877193,0,0,1,28.5088,62)">
                <rect x="181.25" y="143.75" width="42.75" height="37.5" style="fill:white;stroke:rgb(255,247,247);stroke-width:1.06px;stroke-linecap:round;stroke-miterlimit:1.5;"/>
            </g>
        </g>
        <g transform="matrix(1,0,0,1,244,90)">
            <g transform="matrix(0.877193,0,0,1,28.5088,-62)">
                <rect x="181.25" y="143.75" width="42.75" height="37.5" style="fill:white;stroke:rgb(255,247,247);stroke-width:1.06px;stroke-linecap:round;stroke-miterlimit:1.5;"/>
            </g>
        </g>
        <g transform="matrix(1,0,0,1,244,90)">
            <g transform="matrix(0.877193,0,0,1,28.5088,-125)">
                <rect x="181.25" y="143.75" width="42.75" height="37.5" style="fill:white;stroke:rgb(255,247,247);stroke-width:1.06px;stroke-linecap:round;stroke-miterlimit:1.5;"/>
            </g>
        </g>
        <g transform="matrix(1,0,0,1,244,90)">
            <g transform="matrix(0.77,0,0,0.826667,218.5,38)">
                <path d="M243.75,0L56.25,0C52.794,0 50,2.794 50,6.25L50,293.75C50,297.206 52.794,300 56.25,300L243.75,300C247.206,300 250,297.206 250,293.75L250,256.25L250,193.75L250,131.25L250,68.75L250,6.25C250,2.794 247.206,0 243.75,0ZM237.5,125L62.5,125L62.5,75L237.5,75L237.5,125ZM237.5,187.5L62.5,187.5L62.5,137.5L237.5,137.5L237.5,187.5ZM62.5,200L237.5,200L237.5,250L62.5,250L62.5,200ZM62.5,12.5L237.5,12.5L237.5,62.5L62.5,62.5L62.5,12.5ZM237.5,287.5L62.5,287.5L62.5,281.5L237.5,281.5L237.5,287.5Z" style="fill:white;fill-rule:nonzero;stroke:rgb(255,247,247);stroke-width:1.25px;"/>
            </g>
        </g>
        <g transform="matrix(1,0,0,1,244,90)">
            <g transform="matrix(0.77,0,0,0.826667,218.5,38)">
                <path d="M162.5,31.25L87.5,31.25C84.044,31.25 81.25,34.044 81.25,37.5C81.25,40.956 84.044,43.75 87.5,43.75L162.5,43.75C165.956,43.75 168.75,40.956 168.75,37.5C168.75,34.044 165.956,31.25 162.5,31.25Z" style="fill:white;fill-rule:nonzero;stroke:rgb(255,247,247);stroke-width:1.25px;"/>
            </g>
        </g>
        <g transform="matrix(1,0,0,1,244,90)">
            <g transform="matrix(0.77,0,0,0.826667,218.5,38)">
                <path d="M87.5,106.25L162.5,106.25C165.956,106.25 168.75,103.456 168.75,100C168.75,96.544 165.956,93.75 162.5,93.75L87.5,93.75C84.044,93.75 81.25,96.544 81.25,100C81.25,103.456 84.044,106.25 87.5,106.25Z" style="fill:white;fill-rule:nonzero;stroke:rgb(255,247,247);stroke-width:1.25px;"/>
            </g>
        </g>
        <g transform="matrix(1,0,0,1,244,90)">
            <g transform="matrix(0.675439,0,0,0.826667,240.452,38)">
                <rect x="181.25" y="143.75" width="42.75" height="37.5" style="fill:white;stroke:rgb(255,247,247);stroke-width:1.32px;stroke-linecap:round;stroke-miterlimit:1.5;"/>
            </g>
        </g>
        <g transform="matrix(1,0,0,1,244,90)">
            <g transform="matrix(0.77,0,0,0.826667,218.5,38)">
                <path d="M87.5,168.75L162.5,168.75C165.956,168.75 168.75,165.956 168.75,162.5C168.75,159.044 165.956,156.25 162.5,156.25L87.5,156.25C84.044,156.25 81.25,159.044 81.25,162.5C81.25,165.956 84.044,168.75 87.5,168.75Z" style="fill:white;fill-rule:nonzero;stroke:rgb(255,247,247);stroke-width:1.25px;"/>
            </g>
        </g>
        <g transform="matrix(1,0,0,1,244,90)">
            <g transform="matrix(0.77,0,0,0.826667,218.5,38)">
                <path d="M162.5,218.75L87.5,218.75C84.044,218.75 81.25,221.544 81.25,225C81.25,228.456 84.044,231.25 87.5,231.25L162.5,231.25C165.956,231.25 168.75,228.456 168.75,225C168.75,221.544 165.956,218.75 162.5,218.75Z" style="fill:white;fill-rule:nonzero;stroke:rgb(255,247,247);stroke-width:1.25px;"/>
            </g>
        </g>
        <g transform="matrix(1,0,0,1,244,90)">
            <g transform="matrix(0.675439,0,0,0.826667,240.452,89.2533)">
                <rect x="181.25" y="143.75" width="42.75" height="37.5" style="fill:white;stroke:rgb(255,247,247);stroke-width:1.32px;stroke-linecap:round;stroke-miterlimit:1.5;"/>
            </g>
        </g>
        <g transform="matrix(1,0,0,1,244,90)">
            <g transform="matrix(0.675439,0,0,0.826667,240.452,-13.2533)">
                <rect x="181.25" y="143.75" width="42.75" height="37.5" style="fill:white;stroke:rgb(255,247,247);stroke-width:1.32px;stroke-linecap:round;stroke-miterlimit:1.5;"/>
            </g>
        </g>
        <g transform="matrix(1,0,0,1,244,90)">
            <g transform="matrix(0.675439,0,0,0.826667,240.452,-65.3333)">
                <rect x="181.25" y="143.75" width="42.75" height="37.5" style="fill:white;stroke:rgb(255,247,247);stroke-width:1.32px;stroke-linecap:round;stroke-miterlimit:1.5;"/>
            </g>
        </g>
        <g transform="matrix(1,0,0,1,244,90)">
            <g transform="matrix(0.77,0,0,0.828333,-149.5,38)">
                <path d="M243.75,0L56.25,0C52.794,0 50,2.794 50,6.25L50,293.75C50,297.206 52.794,300 56.25,300L243.75,300C247.206,300 250,297.206 250,293.75L250,256.25L250,193.75L250,131.25L250,68.75L250,6.25C250,2.794 247.206,0 243.75,0ZM237.5,125L62.5,125L62.5,75L237.5,75L237.5,125ZM237.5,187.5L62.5,187.5L62.5,137.5L237.5,137.5L237.5,187.5ZM62.5,200L237.5,200L237.5,250L62.5,250L62.5,200ZM62.5,12.5L237.5,12.5L237.5,62.5L62.5,62.5L62.5,12.5ZM237.5,287.5L62.5,287.5L62.5,281.5L237.5,281.5L237.5,287.5Z" style="fill:white;fill-rule:nonzero;stroke:rgb(255,247,247);stroke-width:1.25px;"/>
            </g>
        </g>
        <g transform="matrix(1,0,0,1,244,90)">
            <g transform="matrix(0.77,0,0,0.828333,-149.5,38)">
                <path d="M162.5,31.25L87.5,31.25C84.044,31.25 81.25,34.044 81.25,37.5C81.25,40.956 84.044,43.75 87.5,43.75L162.5,43.75C165.956,43.75 168.75,40.956 168.75,37.5C168.75,34.044 165.956,31.25 162.5,31.25Z" style="fill:white;fill-rule:nonzero;stroke:rgb(255,247,247);stroke-width:1.25px;"/>
            </g>
        </g>
        <g transform="matrix(1,0,0,1,244,90)">
            <g transform="matrix(0.77,0,0,0.828333,-149.5,38)">
                <path d="M87.5,106.25L162.5,106.25C165.956,106.25 168.75,103.456 168.75,100C168.75,96.544 165.956,93.75 162.5,93.75L87.5,93.75C84.044,93.75 81.25,96.544 81.25,100C81.25,103.456 84.044,106.25 87.5,106.25Z" style="fill:white;fill-rule:nonzero;stroke:rgb(255,247,247);stroke-width:1.25px;"/>
            </g>
        </g>
        <g transform="matrix(1,0,0,1,244,90)">
            <g transform="matrix(0.675439,0,0,0.828333,-127.548,38)">
                <rect x="181.25" y="143.75" width="42.75" height="37.5" style="fill:white;stroke:rgb(255,247,247);stroke-width:1.32px;stroke-linecap:round;stroke-miterlimit:1.5;"/>
            </g>
        </g>
        <g transform="matrix(1,0,0,1,244,90)">
            <g transform="matrix(0.77,0,0,0.828333,-149.5,38)">
                <path d="M87.5,168.75L162.5,168.75C165.956,168.75 168.75,165.956 168.75,162.5C168.75,159.044 165.956,156.25 162.5,156.25L87.5,156.25C84.044,156.25 81.25,159.044 81.25,162.5C81.25,165.956 84.044,168.75 87.5,168.75Z" style="fill:white;fill-rule:nonzero;stroke:rgb(255,247,247);stroke-width:1.25px;"/>
            </g>
        </g>
        <g transform="matrix(1,0,0,1,244,90)">
            <g transform="matrix(0.77,0,0,0.828333,-149.5,38)">
                <path d="M162.5,218.75L87.5,218.75C84.044,218.75 81.25,221.544 81.25,225C81.25,228.456 84.044,231.25 87.5,231.25L162.5,231.25C165.956,231.25 168.75,228.456 168.75,225C168.75,221.544 165.956,218.75 162.5,218.75Z" style="fill:white;fill-rule:nonzero;stroke:rgb(255,247,247);stroke-width:1.25px;"/>
            </g>
        </g>
        <g transform="matrix(1,0,0,1,244,90)">
            <g transform="matrix(0.675439,0,0,0.828333,-127.548,89.3567)">
                <rect x="181.25" y="143.75" width="42.75" height="37.5" style="fill:white;stroke:rgb(255,247,247);stroke-width:1.32px;stroke-linecap:round;stroke-miterlimit:1.5;"/>
            </g>
        </g>
        <g transform="matrix(1,0,0,1,244,90)">
            <g transform="matrix(0.675439,0,0,0.828333,-127.548,-13.3567)">
                <rect x="181.25" y="143.75" width="42.75" height="37.5" style="fill:white;stroke:rgb(255,247,247);stroke-width:1.32px;stroke-linecap:round;stroke-miterlimit:1.5;"/>
            </g>
        </g>
        <g transform="matrix(1,0,0,1,244,90)">
            <g transform="matrix(0.675439,0,0,0.828333,-127.548,-65.5417)">
                <rect x="181.25" y="143.75" width="42.75" height="37.5" style="fill:white;stroke:rgb(255,247,247);stroke-width:1.32px;stroke-linecap:round;stroke-miterlimit:1.5;"/>
            </g>
        </g>
    </g>
</svg>
