<?xml version="1.0" encoding="utf-8"?>
<!-- Generator: Adobe Illustrator 23.0.1, SVG Export Plug-In . SVG Version: 6.00 Build 0)  -->
<svg version="1.1" id="Layer_1" xmlns="http://www.w3.org/2000/svg" xmlns:xlink="http://www.w3.org/1999/xlink" x="0px" y="0px"
	 viewBox="0 0 432 432" style="enable-background:new 0 0 432 432;" xml:space="preserve">
<style type="text/css">
	.st0{fill:none;}
	.st1{fill:#FFFFFF;}
</style>
<path class="st0" d="M218,1540.8l-57.3-53.5v30.5c-55.8,7.7-78,45.9-86,84.1c19.9-26.8,46.2-39,86-39v31.4L218,1540.8z"/>
<g>
	<path class="st0" d="M159.9,95.6v30.5c-55.6,7.7-77.8,45.8-85.8,84c19.9-26.8,46.1-38.9,85.8-38.9v31.3l57.2-53.5L159.9,95.6z"/>
	<path class="st1" d="M267.3,210.9V68.7c0-16.8-13.6-30.4-30.4-30.4H54.3c-16.7,0-30.5,13.7-30.5,30.5V251c0,4.2,0.9,8.2,2.4,11.8
		c4.6,10.9,15.5,18.6,28,18.6h133v-52.3c0-10.1,8.2-18.3,18.3-18.3H267.3z M159.9,202.5v-31.3c-39.8,0-65.9,12.2-85.8,38.9
		c8-38.2,30.2-76.2,85.8-84V95.6l57.2,53.4L159.9,202.5z"/>
	<path class="st1" d="M358.7,221.8H212.3c-7.8,0-14.2,6.3-14.2,14.2v146.4c0,7.8,6.3,14.2,14.2,14.2h146.4c7.8,0,14.2-6.3,14.2-14.2
		V235.9C372.8,228.1,366.5,221.8,358.7,221.8z M255.4,339.5h-10.1l-15.8-44.2h-0.3l-8.8,44.2h-10.1l12.3-61.7h10.1l15.8,44.1h0.3
		l8.8-44.1h10.1L255.4,339.5z M308.3,313.2h-24.8l-5.3,26.3h-10.1l12.3-61.7h39l-1.7,8.3h-28.9l-3.8,18.9H310L308.3,313.2z
		 M362.7,295.8l-0.1,0.3h-9.7c0.6-3.3,0.1-5.9-1.6-7.9s-4.3-3-7.8-3c-2.4,0-4.6,0.7-6.6,2.1s-3.1,3.1-3.5,5.1
		c-0.6,3.1-0.2,5.3,1.2,6.8c1.4,1.5,4.6,3.2,9.6,5.1c6.1,2.1,10.4,4.7,13,7.8c2.6,3,3.3,7.3,2.3,12.7c-1,5.3-3.6,9.2-7.5,11.7
		c-4,2.6-8.9,3.9-14.8,3.9c-6.1,0-11.3-1.5-15.4-4.6s-5.5-7.8-4.1-14.3l0.1-0.3h9.7c-0.8,4.1-0.1,6.9,2.3,8.5
		c2.3,1.6,5.4,2.4,9.1,2.4c2.5,0,4.7-0.7,6.8-2.1c2.1-1.4,3.3-3.1,3.8-5.2c0.6-3,0.1-5.3-1.3-6.9c-1.5-1.7-4.4-3.3-8.8-4.9
		c-6.2-2.1-10.6-4.7-13.4-7.8c-2.7-3.1-3.6-7.3-2.5-12.7c1-5,3.5-8.9,7.4-11.6c4-2.7,8.8-4,14.5-4c6.2,0,11,1.7,14.4,5.1
		C362.9,285.3,363.9,289.9,362.7,295.8z"/>
</g>
</svg>
