<?xml version="1.0" encoding="utf-8"?>
<!-- Generator: Adobe Illustrator 23.0.1, SVG Export Plug-In . SVG Version: 6.00 Build 0)  -->
<svg version="1.1" id="Layer_1" xmlns="http://www.w3.org/2000/svg" xmlns:xlink="http://www.w3.org/1999/xlink" x="0px" y="0px"
	 viewBox="0 0 432 432" style="enable-background:new 0 0 432 432;" xml:space="preserve">
<style type="text/css">
	.st0{fill:none;}
	.st1{fill:#FFFFFF;}
</style>
<g>
	<polygon class="st0" points="231.31,321.55 231.31,385.79 297.15,385.79 297.15,374.9 297.15,321.55 253,321.55 	"/>
	<polygon class="st0" points="231.31,306.15 253.11,306.15 297.15,306.15 297.15,263.18 297.15,241.92 231.31,241.92 	"/>
	<path class="st0" d="M177.39,130.45c-55.75,7.74-77.97,45.86-85.99,84.13c19.92-26.8,46.15-38.98,85.99-38.98v31.39l57.33-53.6
		l-57.33-53.46V130.45z"/>
	<polygon class="st0" points="312.55,321.55 312.55,374.9 312.55,385.79 375.17,385.79 375.17,321.55 364.3,321.55 	"/>
	<polygon class="st0" points="312.55,263.18 312.55,306.15 364.3,306.15 375.17,306.15 375.17,241.92 312.55,241.92 	"/>
	<path class="st1" d="M285.05,72.95c0-16.81-13.69-30.49-30.51-30.49H71.58c-16.82,0-30.51,13.69-30.51,30.49v182.66
		c0,4.2,0.86,8.21,2.4,11.86c4.64,10.94,15.49,18.64,28.09,18.64h133.26v-70.67h80.23V72.95z M177.39,206.99V175.6
		c-39.85,0-66.07,12.18-85.99,38.98c8.03-38.27,30.24-76.39,85.99-84.13V99.92l57.33,53.46L177.39,206.99z"/>
	<path class="st1" d="M215.7,226.31V401.4h175.09V226.31H215.7z M297.15,374.9v10.88h-65.85v-64.24H253h44.16V374.9z M297.15,263.18
		v42.97h-44.04h-21.8v-64.23h65.85V263.18z M375.17,385.79h-62.63V374.9v-53.36h51.75h10.88V385.79z M375.17,306.15H364.3h-51.75
		v-42.97v-21.26h62.63V306.15z"/>
</g>
</svg>
