<?xml version="1.0" encoding="utf-8"?>
<!-- Generator: Adobe Illustrator 23.0.1, SVG Export Plug-In . SVG Version: 6.00 Build 0)  -->
<svg version="1.1" id="Layer_1" xmlns="http://www.w3.org/2000/svg" xmlns:xlink="http://www.w3.org/1999/xlink" x="0px" y="0px"
	 viewBox="0 0 432 432" style="enable-background:new 0 0 432 432;" xml:space="preserve">
<style type="text/css">
	.st0{fill:none;}
</style>
<g>
	<path class="st0" d="M277.11,145.25c-58.71,0-108.3,49.59-108.3,108.3s49.59,108.33,108.3,108.33
		c60.75,0,108.33-47.58,108.33-108.33C385.44,194.85,335.82,145.25,277.11,145.25z M331.32,305.02l-65.87-38.61v-74.92h13.75v68.46
		l59.01,33.04L331.32,305.02z"/>
	<path class="st0" d="M260.73,126.68l2.32-0.36V82.87H48.82v183.02h99.04v-12.32C147.86,190.75,196.39,136.2,260.73,126.68z"/>
	<path d="M288.93,126.7l-2.53-0.19V85.59c0-15.62-13.47-26.09-26.07-26.09H51.54c-15.6,0-26.07,13.49-26.07,26.09v208.77
		c0,15.62,13.47,26.09,26.07,26.09h114.3l0.81,1.27c24.27,38.84,64.55,61.11,110.47,61.11c70.08,0,129.28-59.2,129.28-129.28
		C406.39,187.13,354.8,131.4,288.93,126.7z M147.86,253.56v12.32H48.82V82.87h214.23v43.45l-2.32,0.36
		C196.39,136.2,147.86,190.75,147.86,253.56z M277.11,361.88c-58.71,0-108.3-49.62-108.3-108.33s49.59-108.3,108.3-108.3
		s108.33,49.59,108.33,108.3C385.44,314.31,337.86,361.88,277.11,361.88z"/>
	<polygon points="279.19,191.49 265.45,191.49 265.45,266.41 331.32,305.02 338.2,292.99 279.19,259.95 	"/>
</g>
</svg>
