<?xml version="1.0" encoding="UTF-8" standalone="no"?>
<!DOCTYPE svg PUBLIC "-//W3C//DTD SVG 1.1//EN" "http://www.w3.org/Graphics/SVG/1.1/DTD/svg11.dtd">
<svg width="100%" height="100%" viewBox="0 0 104 134" version="1.1" xmlns="http://www.w3.org/2000/svg" xmlns:xlink="http://www.w3.org/1999/xlink" xml:space="preserve" xmlns:serif="http://www.serif.com/" style="fill-rule:evenodd;clip-rule:evenodd;stroke-linejoin:round;stroke-miterlimit:1.41421;">
    <g transform="matrix(1,0,0,1,-33.597,-5.158)">
        <path d="M134.262,138.656L36.931,138.656C35.366,138.656 34.097,137.386 34.097,135.822L34.097,8.492C34.097,6.93 35.357,5.66 36.927,5.66L36.932,5.658L134.262,5.658C135.827,5.658 137.096,6.927 137.096,8.492L137.096,135.822C137.096,137.386 135.828,138.655 134.262,138.656ZM130,116L114,116L114,132L120.592,132C116.075,132 120.592,132 120.592,132C122.93,132 130,132 130,132L130,116ZM60.769,80.657L52.054,80.657L52.08,78.595C52.08,78.47 51.96,78.407 51.718,78.407L51.357,78.407L51.357,77.845C51.357,77.72 51.237,77.657 50.995,77.657L50.272,77.657C50.031,77.657 49.911,77.72 49.911,77.845L49.911,78.407L49.549,78.407C49.308,78.407 49.188,78.47 49.188,78.595L49.194,80.657L45.573,80.657C44.97,80.657 44.459,80.766 44.037,80.986C43.614,81.205 43.404,81.47 43.404,81.782L43.404,91.532C43.404,91.845 43.614,92.11 44.037,92.329C44.459,92.548 44.97,92.657 45.573,92.657L49.201,92.657L49.188,94.72C49.188,94.845 49.308,94.907 49.549,94.907L49.911,94.907L49.911,95.47C49.911,95.595 50.031,95.657 50.272,95.657L50.995,95.657C51.237,95.657 51.357,95.595 51.357,95.47L51.357,94.907L51.718,94.907C51.96,94.907 52.08,94.845 52.08,94.72L52.08,92.657L54.972,92.657L54.972,94.72C54.972,94.845 55.092,94.907 55.333,94.907L55.695,94.907L55.695,95.47C55.695,95.595 55.815,95.657 56.056,95.657L56.779,95.657C57.021,95.657 57.141,95.595 57.141,95.47L57.141,94.907L57.502,94.907C57.744,94.907 57.864,94.845 57.864,94.72L57.864,92.657L60.737,92.657L60.756,94.72C60.756,94.845 60.876,94.907 61.117,94.907L61.479,94.907L61.479,95.47C61.479,95.595 61.599,95.657 61.84,95.657L62.563,95.657C62.805,95.657 62.925,95.595 62.925,95.47L62.925,94.907L63.286,94.907C63.528,94.907 63.648,94.845 63.648,94.72L63.648,92.657L66.54,92.657L66.54,94.72C66.54,94.845 66.66,94.907 66.901,94.907L67.263,94.907L67.263,95.47C67.263,95.595 67.383,95.657 67.624,95.657L68.347,95.657C68.589,95.657 68.709,95.595 68.709,95.47L68.709,94.907L69.07,94.907C69.312,94.907 69.432,94.845 69.432,94.72L69.432,92.657L72.375,92.657L72.324,94.72C72.324,94.845 72.444,94.907 72.685,94.907L73.047,94.907L73.047,95.47C73.047,95.595 73.167,95.657 73.408,95.657L74.131,95.657C74.373,95.657 74.493,95.595 74.493,95.47L74.493,94.907L74.854,94.907C75.096,94.907 75.216,94.845 75.216,94.72L75.241,92.657L78.831,92.657C79.434,92.657 79.945,92.548 80.367,92.329C80.79,92.11 81,91.845 81,91.532L81,81.782C81,81.47 80.79,81.205 80.367,80.986C79.945,80.766 79.434,80.657 78.831,80.657L75.216,80.657L75.216,78.595C75.216,78.47 75.096,78.407 74.854,78.407L74.493,78.407L74.493,77.845C74.493,77.72 74.373,77.657 74.131,77.657L73.408,77.657C73.167,77.657 73.047,77.72 73.047,77.845L73.047,78.407L72.685,78.407C72.444,78.407 72.324,78.47 72.324,78.595L72.337,80.657L69.419,80.657L69.432,78.595C69.432,78.47 69.312,78.407 69.07,78.407L68.709,78.407L68.709,77.845C68.709,77.72 68.589,77.657 68.347,77.657L67.624,77.657C67.383,77.657 67.263,77.72 67.263,77.845L67.263,78.407L66.901,78.407C66.66,78.407 66.54,78.47 66.54,78.595L66.501,80.657L63.648,80.657L63.648,78.595C63.648,78.47 63.528,78.407 63.286,78.407L62.925,78.407L62.925,77.845C62.925,77.72 62.805,77.657 62.563,77.657L61.84,77.657C61.599,77.657 61.479,77.72 61.479,77.845L61.479,78.407L61.117,78.407C60.876,78.407 60.756,78.47 60.756,78.595L60.769,80.657ZM99.995,77.657L99.272,77.657C99.031,77.657 98.911,77.72 98.911,77.845L98.911,78.407L98.549,78.407C98.308,78.407 98.188,78.47 98.188,78.595L98.194,80.657L94.573,80.657C93.97,80.657 93.459,80.766 93.037,80.986C92.614,81.205 92.404,81.47 92.404,81.782L92.404,91.532C92.404,91.845 92.614,92.11 93.037,92.329C93.459,92.548 93.97,92.657 94.573,92.657L98.201,92.657L98.188,94.72C98.188,94.845 98.308,94.907 98.549,94.907L98.911,94.907L98.911,95.47C98.911,95.595 99.031,95.657 99.272,95.657L99.995,95.657C100.237,95.657 100.357,95.595 100.357,95.47L100.357,94.907L100.718,94.907C100.96,94.907 101.08,94.845 101.08,94.72L101.08,92.657L103.972,92.657L103.972,94.72C103.972,94.845 104.092,94.907 104.333,94.907L104.695,94.907L104.695,95.47C104.695,95.595 104.815,95.657 105.056,95.657L105.779,95.657C106.021,95.657 106.141,95.595 106.141,95.47L106.141,94.907L106.502,94.907C106.744,94.907 106.864,94.845 106.864,94.72L106.864,92.657L109.737,92.657L109.756,94.72C109.756,94.845 109.876,94.907 110.117,94.907L110.479,94.907L110.479,95.47C110.479,95.595 110.599,95.657 110.84,95.657L111.563,95.657C111.805,95.657 111.925,95.595 111.925,95.47L111.925,94.907L112.286,94.907C112.528,94.907 112.648,94.845 112.648,94.72L112.648,92.657L115.54,92.657L115.54,94.72C115.54,94.845 115.66,94.907 115.901,94.907L116.263,94.907L116.263,95.47C116.263,95.595 116.383,95.657 116.624,95.657L117.347,95.657C117.589,95.657 117.709,95.595 117.709,95.47L117.709,94.907L118.07,94.907C118.312,94.907 118.432,94.845 118.432,94.72L118.432,92.657L121.375,92.657L121.324,94.72C121.324,94.845 121.444,94.907 121.685,94.907L122.047,94.907L122.047,95.47C122.047,95.595 122.167,95.657 122.408,95.657L123.131,95.657C123.373,95.657 123.493,95.595 123.493,95.47L123.493,94.907L123.854,94.907C124.096,94.907 124.216,94.845 124.216,94.72L124.241,92.657L127.831,92.657C128.434,92.657 128.945,92.548 129.367,92.329C129.79,92.11 130,91.845 130,91.532L130,81.782C130,81.47 129.79,81.205 129.367,80.986C128.945,80.766 128.434,80.657 127.831,80.657L124.216,80.657L124.216,78.595C124.216,78.47 124.096,78.407 123.854,78.407L123.493,78.407L123.493,77.845C123.493,77.72 123.373,77.657 123.131,77.657L122.408,77.657C122.167,77.657 122.047,77.72 122.047,77.845L122.047,78.407L121.685,78.407C121.444,78.407 121.324,78.47 121.324,78.595L121.337,80.657L118.419,80.657L118.432,78.595C118.432,78.47 118.312,78.407 118.07,78.407L117.709,78.407L117.709,77.845C117.709,77.72 117.589,77.657 117.347,77.657L116.624,77.657C116.383,77.657 116.263,77.72 116.263,77.845L116.263,78.407L115.901,78.407C115.66,78.407 115.54,78.47 115.54,78.595L115.501,80.657L112.648,80.657L112.648,78.595C112.648,78.47 112.528,78.407 112.286,78.407L111.925,78.407L111.925,77.845C111.925,77.72 111.805,77.657 111.563,77.657L110.84,77.657C110.599,77.657 110.479,77.72 110.479,77.845L110.479,78.407L110.117,78.407C109.876,78.407 109.756,78.47 109.756,78.595L109.769,80.657L106.851,80.657L106.864,78.595C106.864,78.47 106.744,78.407 106.502,78.407L106.141,78.407L106.141,77.845C106.141,77.72 106.021,77.657 105.779,77.657L105.056,77.657C104.815,77.657 104.695,77.72 104.695,77.845L104.695,78.407L104.333,78.407C104.092,78.407 103.972,78.47 103.972,78.595L103.972,80.657L101.054,80.657L101.08,78.595C101.08,78.47 100.96,78.407 100.718,78.407L100.357,78.407L100.357,77.845C100.357,77.72 100.237,77.657 99.995,77.657ZM56.779,77.657L56.056,77.657C55.815,77.657 55.695,77.72 55.695,77.845L55.695,78.407L55.333,78.407C55.092,78.407 54.972,78.47 54.972,78.595L54.972,80.657L57.851,80.657L57.864,78.595C57.864,78.47 57.744,78.407 57.502,78.407L57.141,78.407L57.141,77.845C57.141,77.72 57.021,77.657 56.779,77.657ZM56.779,56L56.056,56C55.815,56 55.695,56.062 55.695,56.187L55.695,56.75L55.333,56.75C55.092,56.75 54.972,56.812 54.972,56.937L54.972,59L45.573,59C44.97,59 44.459,59.109 44.037,59.328C43.614,59.547 43.404,59.812 43.404,60.125L43.404,69.875C43.404,70.188 43.614,70.453 44.037,70.672C44.459,70.891 44.969,71 45.573,71L49.201,71L49.188,73.063C49.188,73.188 49.308,73.25 49.549,73.25L49.911,73.25L49.911,73.813C49.911,73.938 50.031,74 50.272,74L50.995,74C51.237,74 51.357,73.938 51.357,73.813L51.357,73.25L51.718,73.25C51.96,73.25 52.08,73.188 52.08,73.063L52.08,71L54.972,71L54.972,73.063C54.972,73.188 55.092,73.25 55.333,73.25L55.695,73.25L55.695,73.813C55.695,73.938 55.815,74 56.056,74L56.779,74C57.021,74 57.141,73.938 57.141,73.813L57.141,73.25L57.502,73.25C57.744,73.25 57.864,73.188 57.864,73.063L57.864,71L60.737,71L60.756,73.063C60.756,73.188 60.876,73.25 61.117,73.25L61.479,73.25L61.479,73.813C61.479,73.938 61.599,74 61.84,74L62.563,74C62.805,74 62.925,73.938 62.925,73.813L62.925,73.25L63.286,73.25C63.528,73.25 63.648,73.188 63.648,73.063L63.648,71L66.54,71L66.54,73.063C66.54,73.188 66.66,73.25 66.901,73.25L67.263,73.25L67.263,73.813C67.263,73.938 67.383,74 67.624,74L68.347,74C68.589,74 68.709,73.938 68.709,73.813L68.709,73.25L69.07,73.25C69.312,73.25 69.432,73.188 69.432,73.063L69.432,71L72.375,71L72.324,73.063C72.324,73.188 72.444,73.25 72.685,73.25L73.047,73.25L73.047,73.813C73.047,73.938 73.167,74 73.408,74L74.131,74C74.373,74 74.493,73.938 74.493,73.813L74.493,73.25L74.854,73.25C75.096,73.25 75.216,73.188 75.216,73.063L75.241,71L78.831,71C79.434,71 79.945,70.891 80.367,70.672C80.79,70.453 81,70.188 81,69.875L81,60.125C81,59.812 80.79,59.547 80.367,59.328C79.945,59.109 79.434,59 78.831,59L75.216,59L75.216,56.938C75.216,56.812 75.096,56.75 74.854,56.75L74.493,56.75L74.493,56.188C74.493,56.062 74.373,56 74.131,56L73.408,56C73.167,56 73.047,56.062 73.047,56.188L73.047,56.75L72.685,56.75C72.444,56.75 72.324,56.812 72.324,56.938L72.337,59L69.419,59L69.432,56.938C69.432,56.812 69.312,56.75 69.07,56.75L68.709,56.75L68.709,56.188C68.709,56.062 68.589,56 68.347,56L67.624,56C67.383,56 67.263,56.062 67.263,56.188L67.263,56.75L66.901,56.75C66.66,56.75 66.54,56.812 66.54,56.938L66.501,59L63.648,59L63.648,56.938C63.648,56.812 63.528,56.75 63.286,56.75L62.925,56.75L62.925,56.188C62.925,56.062 62.805,56 62.563,56L61.84,56C61.599,56 61.479,56.062 61.479,56.188L61.479,56.75L61.117,56.75C60.876,56.75 60.756,56.812 60.756,56.938L60.769,59L57.851,59L57.864,56.937C57.864,56.812 57.744,56.75 57.502,56.75L57.141,56.75L57.141,56.187C57.141,56.062 57.021,56 56.779,56ZM105.779,56L105.056,56C104.814,56 104.695,56.062 104.695,56.187L104.695,56.75L104.333,56.75C104.091,56.75 103.972,56.812 103.972,56.937L103.972,59L106.851,59L103.972,59L94.573,59C93.97,59 93.459,59.109 93.037,59.328C92.614,59.547 92.404,59.812 92.404,60.125L92.404,69.875C92.404,70.188 92.614,70.453 93.037,70.672C93.459,70.891 93.969,71 94.573,71L98.201,71L98.188,73.063C98.188,73.188 98.307,73.25 98.549,73.25L98.911,73.25L98.911,73.813C98.911,73.938 99.031,74 99.272,74L99.995,74C100.237,74 100.357,73.938 100.357,73.813L100.357,73.25L100.718,73.25C100.96,73.25 101.08,73.188 101.08,73.063L101.08,71L103.972,71L103.972,73.063C103.972,73.188 104.091,73.25 104.333,73.25L104.695,73.25L104.695,73.813C104.695,73.938 104.815,74 105.056,74L105.779,74C106.021,74 106.141,73.938 106.141,73.813L106.141,73.25L106.502,73.25C106.744,73.25 106.864,73.188 106.864,73.063L106.864,71L109.737,71L109.756,73.063C109.756,73.188 109.875,73.25 110.117,73.25L110.479,73.25L110.479,73.813C110.479,73.938 110.599,74 110.84,74L111.563,74C111.805,74 111.925,73.938 111.925,73.813L111.925,73.25L112.286,73.25C112.528,73.25 112.648,73.188 112.648,73.063L112.648,71L115.54,71L115.54,73.063C115.54,73.188 115.66,73.25 115.901,73.25L116.263,73.25L116.263,73.813C116.263,73.938 116.383,74 116.624,74L117.347,74C117.589,74 117.709,73.938 117.709,73.813L117.709,73.25L118.07,73.25C118.312,73.25 118.432,73.188 118.432,73.063L118.432,71L121.375,71L121.324,73.063C121.324,73.188 121.444,73.25 121.685,73.25L122.047,73.25L122.047,73.813C122.047,73.938 122.167,74 122.408,74L123.131,74C123.373,74 123.493,73.938 123.493,73.813L123.493,73.25L123.854,73.25C124.096,73.25 124.216,73.188 124.216,73.063L124.241,71L127.831,71C128.434,71 128.945,70.891 129.367,70.672C129.79,70.453 130,70.188 130,69.875L130,60.125C130,59.812 129.79,59.547 129.367,59.328C128.945,59.109 128.434,59 127.831,59L124.216,59L124.216,56.938C124.216,56.812 124.096,56.75 123.854,56.75L123.493,56.75L123.493,56.188C123.493,56.062 123.373,56 123.131,56L122.408,56C122.167,56 122.047,56.062 122.047,56.188L122.047,56.75L121.685,56.75C121.444,56.75 121.324,56.812 121.324,56.938L121.337,59L118.419,59L118.432,56.938C118.432,56.812 118.312,56.75 118.07,56.75L117.709,56.75L117.709,56.188C117.709,56.062 117.589,56 117.347,56L116.624,56C116.383,56 116.263,56.062 116.263,56.188L116.263,56.75L115.901,56.75C115.66,56.75 115.54,56.812 115.54,56.938L115.501,59L112.648,59L112.648,56.938C112.648,56.812 112.528,56.75 112.286,56.75L111.925,56.75L111.925,56.188C111.925,56.062 111.805,56 111.563,56L110.84,56C110.598,56 110.479,56.062 110.479,56.188L110.479,56.75L110.117,56.75C109.875,56.75 109.756,56.812 109.756,56.938L109.769,59L112.648,59L109.769,59L106.851,59L106.864,56.937C106.864,56.812 106.744,56.75 106.502,56.75L106.141,56.75L106.141,56.187C106.141,56.062 106.021,56 105.779,56ZM99.995,56L99.272,56C99.03,56 98.911,56.062 98.911,56.187L98.911,56.75L98.549,56.75C98.307,56.75 98.188,56.812 98.188,56.937L98.194,59L101.054,59L101.08,56.937C101.08,56.812 100.96,56.75 100.718,56.75L100.357,56.75L100.357,56.187C100.357,56.062 100.237,56 99.995,56ZM50.995,56L50.272,56C50.031,56 49.911,56.062 49.911,56.187L49.911,56.75L49.549,56.75C49.308,56.75 49.188,56.812 49.188,56.937L49.194,59L52.054,59L52.08,56.937C52.08,56.812 51.96,56.75 51.718,56.75L51.357,56.75L51.357,56.187C51.357,56.062 51.237,56 50.995,56ZM99.995,34.657L99.272,34.657C99.03,34.658 98.911,34.72 98.911,34.845L98.911,35.407L98.549,35.407C98.307,35.408 98.188,35.47 98.188,35.595L98.194,37.657L94.573,37.657C93.969,37.658 93.459,37.766 93.037,37.986C92.614,38.205 92.404,38.47 92.404,38.782L92.404,48.532C92.404,48.845 92.614,49.11 93.037,49.329C93.459,49.548 93.969,49.657 94.573,49.657L98.201,49.657L98.188,51.72C98.188,51.845 98.307,51.907 98.549,51.907L98.911,51.907L98.911,52.47C98.911,52.595 99.031,52.657 99.272,52.657L99.995,52.657C100.237,52.657 100.357,52.595 100.357,52.47L100.357,51.907L100.718,51.907C100.96,51.907 101.08,51.845 101.08,51.72L101.08,49.657L103.972,49.657L103.972,51.72C103.972,51.845 104.091,51.907 104.333,51.907L104.695,51.907L104.695,52.47C104.695,52.595 104.815,52.657 105.056,52.657L105.779,52.657C106.021,52.657 106.141,52.595 106.141,52.47L106.141,51.907L106.502,51.907C106.744,51.907 106.864,51.845 106.864,51.72L106.864,49.657L109.737,49.657L109.756,51.72C109.756,51.845 109.875,51.907 110.117,51.907L110.479,51.907L110.479,52.47C110.479,52.595 110.599,52.657 110.84,52.657L111.563,52.657C111.805,52.657 111.925,52.595 111.925,52.47L111.925,51.907L112.286,51.907C112.528,51.907 112.648,51.845 112.648,51.72L112.648,49.657L115.54,49.657L115.54,51.72C115.54,51.845 115.659,51.907 115.901,51.907L116.263,51.907L116.263,52.47C116.263,52.595 116.383,52.657 116.624,52.657L117.347,52.657C117.589,52.657 117.709,52.595 117.709,52.47L117.709,51.907L118.07,51.907C118.312,51.907 118.432,51.845 118.432,51.72L118.432,49.657L121.375,49.657L121.324,51.72C121.324,51.845 121.443,51.907 121.685,51.907L122.047,51.907L122.047,52.47C122.047,52.595 122.167,52.657 122.408,52.657L123.131,52.657C123.373,52.657 123.493,52.595 123.493,52.47L123.493,51.907L123.854,51.907C124.096,51.907 124.216,51.845 124.216,51.72L124.241,49.657L127.831,49.657C128.434,49.657 128.945,49.548 129.367,49.329C129.79,49.11 130,48.845 130,48.532L130,38.782C130,38.47 129.79,38.205 129.367,37.986C128.945,37.766 128.434,37.657 127.831,37.657L124.216,37.657L124.216,35.595C124.216,35.47 124.096,35.407 123.854,35.407L123.493,35.407L123.493,34.845C123.493,34.72 123.374,34.658 123.131,34.657L122.408,34.657C122.166,34.658 122.047,34.72 122.047,34.845L122.047,35.407L121.685,35.407C121.443,35.408 121.324,35.47 121.324,35.595L121.337,37.657L118.419,37.657L118.432,35.595C118.432,35.47 118.312,35.407 118.07,35.407L117.709,35.407L117.709,34.845C117.709,34.72 117.59,34.658 117.347,34.657L116.624,34.657C116.382,34.658 116.263,34.72 116.263,34.845L116.263,35.407L115.901,35.407C115.659,35.408 115.54,35.47 115.54,35.595L115.501,37.657L112.648,37.657L112.648,35.595C112.648,35.47 112.528,35.407 112.286,35.407L111.925,35.407L111.925,34.845C111.925,34.72 111.805,34.658 111.563,34.657L110.84,34.657C110.598,34.658 110.479,34.72 110.479,34.845L110.479,35.407L110.117,35.407C109.875,35.408 109.756,35.47 109.756,35.595L109.769,37.657L106.851,37.657L106.864,35.595C106.864,35.47 106.744,35.407 106.502,35.407L106.141,35.407L106.141,34.845C106.141,34.72 106.021,34.658 105.779,34.657L105.056,34.657C104.814,34.658 104.695,34.72 104.695,34.845L104.695,35.407L104.333,35.407C104.091,35.408 103.972,35.47 103.972,35.595L103.972,37.657L101.054,37.657L101.08,35.595C101.08,35.47 100.96,35.407 100.718,35.407L100.357,35.407L100.357,34.845C100.357,34.72 100.237,34.658 99.995,34.657ZM50.995,34.657L50.272,34.657C50.031,34.657 49.911,34.72 49.911,34.845L49.911,35.407L49.549,35.407C49.308,35.407 49.188,35.47 49.188,35.595L49.194,37.657L45.573,37.657C44.969,37.657 44.459,37.766 44.037,37.986C43.614,38.205 43.404,38.47 43.404,38.782L43.404,48.532C43.404,48.845 43.614,49.11 44.037,49.329C44.459,49.548 44.969,49.657 45.573,49.657L49.201,49.657L49.188,51.72C49.188,51.845 49.308,51.907 49.549,51.907L49.911,51.907L49.911,52.47C49.911,52.595 50.031,52.657 50.272,52.657L50.995,52.657C51.237,52.657 51.357,52.595 51.357,52.47L51.357,51.907L51.718,51.907C51.96,51.907 52.08,51.845 52.08,51.72L52.08,49.657L54.972,49.657L54.972,51.72C54.972,51.845 55.092,51.907 55.333,51.907L55.695,51.907L55.695,52.47C55.695,52.595 55.815,52.657 56.056,52.657L56.779,52.657C57.021,52.657 57.141,52.595 57.141,52.47L57.141,51.907L57.502,51.907C57.744,51.907 57.864,51.845 57.864,51.72L57.864,49.657L60.737,49.657L60.756,51.72C60.756,51.845 60.876,51.907 61.117,51.907L61.479,51.907L61.479,52.47C61.479,52.595 61.599,52.657 61.84,52.657L62.563,52.657C62.805,52.657 62.925,52.595 62.925,52.47L62.925,51.907L63.286,51.907C63.528,51.907 63.648,51.845 63.648,51.72L63.648,49.657L66.54,49.657L66.54,51.72C66.54,51.845 66.66,51.907 66.901,51.907L67.263,51.907L67.263,52.47C67.263,52.595 67.383,52.657 67.624,52.657L68.347,52.657C68.589,52.657 68.709,52.595 68.709,52.47L68.709,51.907L69.07,51.907C69.312,51.907 69.432,51.845 69.432,51.72L69.432,49.657L72.375,49.657L72.324,51.72C72.324,51.845 72.444,51.907 72.685,51.907L73.047,51.907L73.047,52.47C73.047,52.595 73.167,52.657 73.408,52.657L74.131,52.657C74.373,52.657 74.493,52.595 74.493,52.47L74.493,51.907L74.854,51.907C75.096,51.907 75.216,51.845 75.216,51.72L75.241,49.657L78.831,49.657C79.434,49.657 79.945,49.548 80.367,49.329C80.79,49.11 81,48.845 81,48.532L81,38.782C81,38.47 80.79,38.205 80.367,37.986C79.945,37.766 79.434,37.657 78.831,37.657L75.216,37.657L75.216,35.595C75.216,35.47 75.096,35.407 74.854,35.407L74.493,35.407L74.493,34.845C74.493,34.72 74.373,34.657 74.131,34.657L73.408,34.657C73.167,34.657 73.047,34.72 73.047,34.845L73.047,35.407L72.685,35.407C72.444,35.407 72.324,35.47 72.324,35.595L72.337,37.657L69.419,37.657L69.432,35.595C69.432,35.47 69.312,35.407 69.07,35.407L68.709,35.407L68.709,34.845C68.709,34.72 68.589,34.657 68.347,34.657L67.624,34.657C67.383,34.657 67.263,34.72 67.263,34.845L67.263,35.407L66.901,35.407C66.66,35.407 66.54,35.47 66.54,35.595L66.501,37.657L63.648,37.657L63.648,35.595C63.648,35.47 63.528,35.407 63.286,35.407L62.925,35.407L62.925,34.845C62.925,34.72 62.805,34.657 62.563,34.657L61.84,34.657C61.599,34.657 61.479,34.72 61.479,34.845L61.479,35.407L61.117,35.407C60.876,35.407 60.756,35.47 60.756,35.595L60.769,37.657L57.851,37.657L57.864,35.595C57.864,35.47 57.744,35.407 57.502,35.407L57.141,35.407L57.141,34.845C57.141,34.72 57.021,34.657 56.779,34.657L56.056,34.657C55.815,34.657 55.695,34.72 55.695,34.845L55.695,35.407L55.333,35.407C55.092,35.407 54.972,35.47 54.972,35.595L54.972,37.657L52.054,37.657L52.08,35.595C52.08,35.47 51.96,35.407 51.718,35.407L51.357,35.407L51.357,34.845C51.357,34.72 51.237,34.657 50.995,34.657ZM56.779,12.657L56.056,12.657C55.814,12.658 55.695,12.72 55.695,12.845L55.695,13.407L55.333,13.407C55.091,13.408 54.972,13.47 54.972,13.595L54.972,15.657L45.573,15.657C44.97,15.657 44.459,15.766 44.037,15.985C43.614,16.205 43.404,16.469 43.404,16.782L43.404,26.532C43.404,26.845 43.614,27.11 44.037,27.329C44.459,27.548 44.969,27.657 45.573,27.657L49.201,27.657L49.188,29.72C49.188,29.845 49.307,29.907 49.549,29.907L49.911,29.907L49.911,30.47C49.911,30.595 50.031,30.657 50.272,30.657L50.995,30.657C51.237,30.657 51.357,30.595 51.357,30.47L51.357,29.907L51.718,29.907C51.96,29.907 52.08,29.845 52.08,29.72L52.08,27.657L62.202,27.657L60.737,27.657L60.756,29.72C60.756,29.845 60.875,29.907 61.117,29.907L61.479,29.907L61.479,30.47C61.479,30.595 61.599,30.657 61.84,30.657L62.563,30.657C62.805,30.657 62.925,30.595 62.925,30.47L62.925,29.907L63.286,29.907C63.528,29.907 63.648,29.845 63.648,29.72L63.648,27.657L66.54,27.657L66.54,29.72C66.54,29.845 66.659,29.907 66.901,29.907L67.263,29.907L67.263,30.47C67.263,30.595 67.383,30.657 67.624,30.657L68.347,30.657C68.589,30.657 68.709,30.595 68.709,30.47L68.709,29.907L69.07,29.907C69.312,29.907 69.432,29.845 69.432,29.72L69.432,27.657L72.375,27.657L72.324,29.72C72.324,29.845 72.443,29.907 72.685,29.907L73.047,29.907L73.047,30.47C73.047,30.595 73.167,30.657 73.408,30.657L74.131,30.657C74.373,30.657 74.493,30.595 74.493,30.47L74.493,29.907L74.854,29.907C75.096,29.907 75.216,29.845 75.216,29.72L75.241,27.657L78.831,27.657C79.434,27.657 79.945,27.548 80.367,27.329C80.79,27.11 81,26.845 81,26.532L81,16.782C81,16.469 80.79,16.205 80.367,15.985C79.945,15.766 79.434,15.657 78.831,15.657L75.216,15.657L75.216,13.595C75.216,13.469 75.096,13.407 74.854,13.407L74.493,13.407L74.493,12.845C74.493,12.72 74.374,12.658 74.131,12.657L73.408,12.657C73.166,12.658 73.047,12.72 73.047,12.845L73.047,13.407L72.685,13.407C72.443,13.408 72.324,13.47 72.324,13.595L72.337,15.657L74,15.657L62.202,15.657L63.648,15.657L63.648,13.595C63.648,13.469 63.528,13.407 63.286,13.407L62.925,13.407L62.925,12.845C62.925,12.72 62.806,12.658 62.563,12.657L61.84,12.657C61.598,12.658 61.479,12.72 61.479,12.845L61.479,13.407L61.117,13.407C60.875,13.408 60.756,13.47 60.756,13.595L60.769,15.657L62.202,15.657L60.769,15.657L57.851,15.657L57.864,13.595C57.864,13.469 57.744,13.407 57.502,13.407L57.141,13.407L57.141,12.845C57.141,12.72 57.022,12.658 56.779,12.657ZM105.779,12.657L105.056,12.657C104.814,12.658 104.695,12.72 104.695,12.845L104.695,13.407L104.333,13.407C104.091,13.408 103.972,13.47 103.972,13.595L103.972,15.657L94.573,15.657C93.97,15.657 93.459,15.766 93.037,15.985C92.614,16.205 92.404,16.469 92.404,16.782L92.404,26.532C92.404,26.845 92.614,27.11 93.037,27.329C93.459,27.548 93.969,27.657 94.573,27.657L98.201,27.657L98.188,29.72C98.188,29.845 98.307,29.907 98.549,29.907L98.911,29.907L98.911,30.47C98.911,30.595 99.031,30.657 99.272,30.657L99.995,30.657C100.237,30.657 100.357,30.595 100.357,30.47L100.357,29.907L100.718,29.907C100.96,29.907 101.08,29.845 101.08,29.72L101.08,27.657L111.202,27.657L109.737,27.657L109.756,29.72C109.756,29.845 109.875,29.907 110.117,29.907L110.479,29.907L110.479,30.47C110.479,30.595 110.599,30.657 110.84,30.657L111.563,30.657C111.805,30.657 111.925,30.595 111.925,30.47L111.925,29.907L112.286,29.907C112.528,29.907 112.648,29.845 112.648,29.72L112.648,27.657L115.54,27.657L115.54,29.72C115.54,29.845 115.659,29.907 115.901,29.907L116.263,29.907L116.263,30.47C116.263,30.595 116.383,30.657 116.624,30.657L117.347,30.657C117.589,30.657 117.709,30.595 117.709,30.47L117.709,29.907L118.07,29.907C118.312,29.907 118.432,29.845 118.432,29.72L118.432,27.657L121.375,27.657L121.324,29.72C121.324,29.845 121.443,29.907 121.685,29.907L122.047,29.907L122.047,30.47C122.047,30.595 122.167,30.657 122.408,30.657L123.131,30.657C123.373,30.657 123.493,30.595 123.493,30.47L123.493,29.907L123.854,29.907C124.096,29.907 124.216,29.845 124.216,29.72L124.241,27.657L127.831,27.657C128.434,27.657 128.945,27.548 129.367,27.329C129.79,27.11 130,26.845 130,26.532L130,16.782C130,16.469 129.79,16.205 129.367,15.985C128.945,15.766 128.434,15.657 127.831,15.657L124.216,15.657L124.216,13.595C124.216,13.469 124.096,13.407 123.854,13.407L123.493,13.407L123.493,12.845C123.493,12.72 123.374,12.658 123.131,12.657L122.408,12.657C122.166,12.658 122.047,12.72 122.047,12.845L122.047,13.407L121.685,13.407C121.443,13.408 121.324,13.47 121.324,13.595L121.337,15.657L122,15.657L111.202,15.657L112.648,15.657L112.648,13.595C112.648,13.469 112.528,13.407 112.286,13.407L111.925,13.407L111.925,12.845C111.925,12.72 111.806,12.658 111.563,12.657L110.84,12.657C110.598,12.658 110.479,12.72 110.479,12.845L110.479,13.407L110.117,13.407C109.875,13.408 109.756,13.47 109.756,13.595L109.769,15.657L111.202,15.657L109.769,15.657L106.851,15.657L106.864,13.595C106.864,13.469 106.744,13.407 106.502,13.407L106.141,13.407L106.141,12.845C106.141,12.72 106.022,12.658 105.779,12.657ZM57.864,27.657L54.972,27.657L54.972,29.72C54.972,29.845 55.091,29.907 55.333,29.907L55.695,29.907L55.695,30.47C55.695,30.595 55.815,30.657 56.056,30.657L56.779,30.657C57.021,30.657 57.141,30.595 57.141,30.47L57.141,29.907L57.502,29.907C57.744,29.907 57.864,29.845 57.864,29.72L57.864,27.657ZM106.864,27.657L103.972,27.657L103.972,29.72C103.972,29.845 104.091,29.907 104.333,29.907L104.695,29.907L104.695,30.47C104.695,30.595 104.815,30.657 105.056,30.657L105.779,30.657C106.021,30.657 106.141,30.595 106.141,30.47L106.141,29.907L106.502,29.907C106.744,29.907 106.864,29.845 106.864,29.72L106.864,27.657ZM68.347,12.657L67.624,12.657C67.382,12.658 67.263,12.72 67.263,12.845L67.263,13.407L66.901,13.407C66.659,13.408 66.54,13.47 66.54,13.595L66.501,15.657L69.419,15.657L69.432,13.595C69.432,13.469 69.312,13.407 69.07,13.407L68.709,13.407L68.709,12.845C68.709,12.72 68.59,12.658 68.347,12.657ZM117.347,12.657L116.624,12.657C116.382,12.658 116.263,12.72 116.263,12.845L116.263,13.407L115.901,13.407C115.659,13.408 115.54,13.47 115.54,13.595L115.501,15.657L118.419,15.657L118.432,13.595C118.432,13.469 118.312,13.407 118.07,13.407L117.709,13.407L117.709,12.845C117.709,12.72 117.59,12.658 117.347,12.657ZM50.995,12.657L50.272,12.657C50.03,12.658 49.911,12.72 49.911,12.845L49.911,13.407L49.549,13.407C49.307,13.408 49.188,13.47 49.188,13.595L49.194,15.657L52.054,15.657L52.08,13.595C52.08,13.469 51.96,13.407 51.718,13.407L51.357,13.407L51.357,12.845C51.357,12.72 51.238,12.658 50.995,12.657ZM99.995,12.657L99.272,12.657C99.03,12.658 98.911,12.72 98.911,12.845L98.911,13.407L98.549,13.407C98.307,13.408 98.188,13.47 98.188,13.595L98.194,15.657L101.054,15.657L101.08,13.595C101.08,13.469 100.96,13.407 100.718,13.407L100.357,13.407L100.357,12.845C100.357,12.72 100.238,12.658 99.995,12.657Z" style="fill:white;stroke:white;stroke-width:1px;"/>
    </g>
</svg>
