<?xml version="1.0" encoding="UTF-8" standalone="no"?>
<!DOCTYPE svg PUBLIC "-//W3C//DTD SVG 1.1//EN" "http://www.w3.org/Graphics/SVG/1.1/DTD/svg11.dtd">
<svg width="100%" height="100%" viewBox="0 0 123 120" version="1.1" xmlns="http://www.w3.org/2000/svg" xmlns:xlink="http://www.w3.org/1999/xlink" xml:space="preserve" xmlns:serif="http://www.serif.com/" style="fill-rule:evenodd;clip-rule:evenodd;stroke-linecap:round;">
    <g transform="matrix(1,0,0,1,-6.29007,1.97358)">
        <g transform="matrix(1,0,0,1,8.98013,-2.23983)">
            <g id="path6" transform="matrix(0.306828,-0.951765,0.951765,0.306828,-8.651,122.78)">
                <path d="M124.452,80.118C129.761,71.306 129.784,68.143 128.5,63.406C124.547,48.825 101.559,38.977 66.813,37.156C63.555,36.985 64.359,37.092 57.219,36.906C54.611,36.838 46.095,37.323 31.688,43.812" style="fill:none;stroke:black;stroke-width:5px;"/>
            </g>
        </g>
        <g transform="matrix(1,0,0,1,8.98013,-2.23983)">
            <g id="path10" transform="matrix(0.306828,-0.951765,0.951765,0.306828,27.4799,71.9597)">
                <path d="M73.5,61C73.5,65.114 70.114,68.5 66,68.5C61.886,68.5 58.5,65.114 58.5,61C58.5,56.886 61.886,53.5 66,53.5C70.114,53.5 73.5,56.886 73.5,61Z" style="fill-rule:nonzero;"/>
            </g>
        </g>
        <g transform="matrix(1,0,0,1,8.98013,-2.23983)">
            <g id="path61" serif:id="path6" transform="matrix(-0.951765,-0.306828,0.306828,-0.951765,110.484,145.583)">
                <path d="M124.452,80.118C129.761,71.306 129.784,68.143 128.5,63.406C124.547,48.825 101.559,38.977 66.813,37.156C63.555,36.985 64.359,37.092 57.219,36.906C54.611,36.838 46.095,37.323 31.688,43.812" style="fill:none;stroke:black;stroke-width:5px;"/>
            </g>
        </g>
        <g transform="matrix(1,0,0,1,8.98013,-2.23983)">
            <g id="path101" serif:id="path10" transform="matrix(-0.951765,-0.306828,0.306828,-0.951765,59.6643,109.452)">
                <path d="M73.5,61C73.5,65.114 70.114,68.5 66,68.5C61.886,68.5 58.5,65.114 58.5,61C58.5,56.886 61.886,53.5 66,53.5C70.114,53.5 73.5,56.886 73.5,61Z" style="fill-rule:nonzero;"/>
            </g>
        </g>
        <g transform="matrix(1,0,0,1,8.98013,-2.23983)">
            <g id="path62" serif:id="path6" transform="matrix(-0.457126,-0.889402,0.889402,-0.457126,48.0875,158.057)">
                <path d="M124.452,80.118C129.761,71.306 129.784,68.143 128.5,63.406C124.547,48.825 101.559,38.977 66.813,37.156C63.555,36.985 64.359,37.092 57.219,36.906C54.611,36.838 46.095,37.323 31.688,43.812" style="fill:none;stroke:black;stroke-width:5px;"/>
            </g>
        </g>
        <g transform="matrix(1,0,0,1,8.98013,-2.23983)">
            <g id="path102" serif:id="path10" transform="matrix(-0.457126,-0.889402,0.889402,-0.457126,37.6257,96.5867)">
                <path d="M73.5,61C73.5,65.114 70.114,68.5 66,68.5C61.886,68.5 58.5,65.114 58.5,61C58.5,56.886 61.886,53.5 66,53.5C70.114,53.5 73.5,56.886 73.5,61Z" style="fill-rule:nonzero;"/>
            </g>
        </g>
        <g transform="matrix(1,0,0,1,8.98013,-2.23983)">
            <g transform="matrix(0.767757,0,0,0.628457,70.6985,46.9176)">
                <path d="M58.916,2.5L4.834,2.5C2.169,2.5 0,4.669 0,7.335L0,47.415C0,50.081 2.169,52.25 4.834,52.25L22.875,52.25L22.875,54.068L22.105,54.068C21.001,54.068 20.105,54.964 20.105,56.068C20.105,57.172 21.001,58.068 22.105,58.068L41.645,58.068C42.749,58.068 43.645,57.172 43.645,56.068C43.645,54.964 42.749,54.068 41.645,54.068L40.875,54.068L40.875,52.25L58.916,52.25C61.58,52.25 63.75,50.081 63.75,47.415L63.75,7.335C63.75,4.669 61.58,2.5 58.916,2.5ZM36.875,54.068L26.875,54.068L26.875,52.25L36.875,52.25L36.875,54.068ZM59.75,47.415C59.75,47.875 59.375,48.25 58.916,48.25L4.834,48.25C4.375,48.25 4,47.875 4,47.415L4,7.335C4,6.875 4.375,6.5 4.834,6.5L58.916,6.5C59.375,6.5 59.75,6.875 59.75,7.335L59.75,47.415Z" style="fill-rule:nonzero;"/>
            </g>
        </g>
        <g transform="matrix(1,0,0,1,8.98013,-2.23983)">
            <g transform="matrix(1,0,0,1,2,2)">
                <path d="M88,53.82C88,53.603 87.824,53.427 87.607,53.427L74.393,53.427C74.176,53.427 74,53.603 74,53.82L74,54.607C74,54.824 74.176,55 74.393,55L87.607,55C87.824,55 88,54.824 88,54.607L88,53.82Z"/>
            </g>
        </g>
        <g transform="matrix(1,0,0,1,8.98013,-2.23983)">
            <g transform="matrix(1,0,0,1,2,5.36356)">
                <path d="M88,53.82C88,53.603 87.824,53.427 87.607,53.427L74.393,53.427C74.176,53.427 74,53.603 74,53.82L74,54.607C74,54.824 74.176,55 74.393,55L87.607,55C87.824,55 88,54.824 88,54.607L88,53.82Z"/>
            </g>
        </g>
        <g transform="matrix(1,0,0,1,8.98013,-2.23983)">
            <g transform="matrix(1,0,0,1,2.01629,15.4462)">
                <path d="M88,53.82C88,53.603 87.824,53.427 87.607,53.427L74.393,53.427C74.176,53.427 74,53.603 74,53.82L74,54.607C74,54.824 74.176,55 74.393,55L87.607,55C87.824,55 88,54.824 88,54.607L88,53.82Z"/>
            </g>
        </g>
        <g transform="matrix(1,0,0,1,8.98013,-2.23983)">
            <g transform="matrix(1,0,0,1,2.01629,18.8097)">
                <path d="M88,53.82C88,53.603 87.824,53.427 87.607,53.427L74.393,53.427C74.176,53.427 74,53.603 74,53.82L74,54.607C74,54.824 74.176,55 74.393,55L87.607,55C87.824,55 88,54.824 88,54.607L88,53.82Z"/>
            </g>
        </g>
        <g transform="matrix(1,0,0,1,8.98013,-2.23983)">
            <g transform="matrix(1,0,0,1,2,8.62522)">
                <path d="M88,53.82C88,53.603 87.824,53.427 87.607,53.427L74.393,53.427C74.176,53.427 74,53.603 74,53.82L74,54.607C74,54.824 74.176,55 74.393,55L87.607,55C87.824,55 88,54.824 88,54.607L88,53.82Z"/>
            </g>
        </g>
        <g transform="matrix(1,0,0,1,8.98013,-2.23983)">
            <g transform="matrix(1,0,0,1,2,11.9888)">
                <path d="M88,53.82C88,53.603 87.824,53.427 87.607,53.427L74.393,53.427C74.176,53.427 74,53.603 74,53.82L74,54.607C74,54.824 74.176,55 74.393,55L87.607,55C87.824,55 88,54.824 88,54.607L88,53.82Z"/>
            </g>
        </g>
        <g transform="matrix(1,0,0,1,8.98013,-2.23983)">
            <g transform="matrix(1,0,0,1.62966,94,46.4476)">
                <path d="M2.245,10.496L0.272,10.496C0.122,10.496 0,10.62 0,10.77L0,16.487C0,16.637 0.122,16.759 0.272,16.759L2.245,16.759C2.395,16.759 2.517,16.637 2.517,16.487L2.517,10.77C2.518,10.62 2.396,10.496 2.245,10.496Z" style="fill:rgb(3,1,4);fill-rule:nonzero;"/>
            </g>
        </g>
        <g transform="matrix(1,0,0,1,8.98013,-2.23983)">
            <g transform="matrix(1,0,0,1.62966,85.87,46.4476)">
                <path d="M18.504,10.496L16.531,10.496C16.381,10.496 16.26,10.62 16.26,10.77L16.26,16.487C16.26,16.637 16.381,16.759 16.531,16.759L18.504,16.759C18.656,16.759 18.777,16.637 18.777,16.487L18.777,10.77C18.777,10.62 18.656,10.496 18.504,10.496Z" style="fill:rgb(3,1,4);fill-rule:nonzero;"/>
            </g>
        </g>
        <g transform="matrix(1,0,0,1,8.98013,-2.23983)">
            <g transform="matrix(1,0,0,1.62966,94.403,46.4508)">
                <path d="M5.907,7.228L3.934,7.228C3.784,7.228 3.661,7.35 3.661,7.501L3.661,16.485C3.661,16.635 3.784,16.757 3.934,16.757L5.907,16.757C6.058,16.757 6.18,16.635 6.18,16.485L6.18,7.501C6.18,7.349 6.058,7.228 5.907,7.228Z" style="fill:rgb(3,1,4);fill-rule:nonzero;"/>
            </g>
        </g>
        <g transform="matrix(1,0,0,1,8.98013,-2.23983)">
            <g transform="matrix(1,0,0,1.62966,98.233,46.4508)">
                <path d="M14.271,7.228L12.298,7.228C12.148,7.228 12.027,7.35 12.027,7.501L12.027,16.485C12.027,16.635 12.148,16.757 12.298,16.757L14.271,16.757C14.423,16.757 14.544,16.635 14.544,16.485L14.544,7.501C14.545,7.349 14.424,7.228 14.271,7.228Z" style="fill:rgb(3,1,4);fill-rule:nonzero;"/>
            </g>
        </g>
        <g transform="matrix(1,0,0,1,8.98013,-2.23983)">
            <g transform="matrix(1,0,0,1.62966,98.43,46.4525)">
                <path d="M10.01,9.218L8.036,9.218C7.886,9.218 7.764,9.341 7.764,9.49L7.764,16.484C7.764,16.634 7.886,16.756 8.036,16.756L10.01,16.756C10.162,16.756 10.283,16.634 10.283,16.484L10.283,9.49C10.283,9.341 10.162,9.218 10.01,9.218Z" style="fill:rgb(3,1,4);fill-rule:nonzero;"/>
            </g>
        </g>
    </g>
</svg>
