<?xml version="1.0" encoding="utf-8"?>
<!-- Generator: Adobe Illustrator 23.0.1, SVG Export Plug-In . SVG Version: 6.00 Build 0)  -->
<svg version="1.1" id="Layer_1" xmlns="http://www.w3.org/2000/svg" xmlns:xlink="http://www.w3.org/1999/xlink" x="0px" y="0px"
	 viewBox="0 0 432 432" style="enable-background:new 0 0 432 432;" xml:space="preserve">
<style type="text/css">
	.st0{fill:none;}
	.st1{fill:#FFFFFF;}
</style>
<g>
	<path class="st0" d="M53.69,299.98v30.73c1.12,2.72,5.23,10.72,17.36,19.03c14.3,9.79,42.44,21.47,95.3,21.47
		c6.65,0,12.88-0.19,18.73-0.53c41.16-2.46,63.12-12.73,74.55-21.53c10.47-8.06,13.37-15.82,13.98-17.84v-27.52
		c-17.07,12.71-48.32,26.46-103.91,26.46C107.67,330.25,71.27,312.23,53.69,299.98z"/>
	<path class="st0" d="M53.69,242.08v37.89c2.82,2.77,36.96,34.58,116.01,34.58c71.84,0,98.25-25.18,103.91-31.74v-36.92
		c-17.07,12.71-48.32,26.46-103.91,26.46C107.67,272.35,71.27,254.33,53.69,242.08z"/>
	<path class="st0" d="M273.6,185.12c-19.39,19.32-62.48,32.03-109.97,32.03c-47.46,0-90.54-12.7-109.94-32.01v36.94
		c2.82,2.77,36.96,34.58,116.01,34.58c71.84,0,98.25-25.18,103.91-31.74h-0.01V185.12z"/>
	<path class="st0" d="M285.29,206.64c66.01-2.7,89.04-27.39,92.87-32.14v-39.59c-16.93,16.93-51.67,28.78-92.87,31.46V206.64z"/>
	<path class="st0" d="M285.29,264.56c65.98-2.69,89.03-27.42,92.87-32.17v-36.61c-13.4,10.05-41.38,24.47-92.87,26.46V264.56z"/>
	<path class="st0" d="M285.29,320.99c44.68-2.1,67.53-12.85,78.85-21.57c10.5-8.09,13.41-15.88,14.02-17.9v-27.86
		c-13.4,10.05-41.38,24.47-92.87,26.46V320.99z"/>
	<path class="st1" d="M388.72,107.75c-4.65-29.1-56.53-51.03-120.85-51.03c-62.88,0-115.22,21.93-120.69,50.21
		c-47.53,2.97-85.2,18.45-98.76,38.5c-0.41,0.58-0.72,1.17-1.09,1.76c-1.27,2.13-2.38,4.27-3.08,6.49c-0.79,2.31-1.3,4.67-1.43,7.07
		c-0.01,0.26-0.16,0.51-0.16,0.77v0.63v170.2l0.06,0.49c0.53,2.02,14.15,49.38,123.27,49.38c0.06,0,0.11-0.01,0.18-0.01
		s0.11,0.01,0.18,0.01c109.58,0,118.58-47.67,118.91-49.7l0.01-0.51c94.97-4.3,103.56-47.27,103.88-49.11L388.72,107.75z
		 M273.61,331.31c-0.61,2.02-3.51,9.78-13.98,17.84c-11.43,8.8-33.39,19.07-74.55,21.53c-5.85,0.34-12.08,0.53-18.73,0.53
		c-52.86,0-81-11.68-95.3-21.47c-12.13-8.31-16.24-16.31-17.36-19.03v-30.73c17.58,12.25,53.98,30.27,116.01,30.27
		c55.59,0,86.84-13.75,103.91-26.46V331.31z M273.61,282.81c-5.66,6.56-32.07,31.74-103.91,31.74
		c-79.05,0-113.19-31.81-116.01-34.58v-37.89c17.58,12.25,53.98,30.27,116.01,30.27c55.59,0,86.84-13.75,103.91-26.46V282.81z
		 M169.7,256.66c-79.05,0-113.19-31.81-116.01-34.58v-36.94c19.4,19.31,62.48,32.01,109.94,32.01c47.49,0,90.58-12.71,109.97-32.03
		v39.8h0.01C267.95,231.48,241.54,256.66,169.7,256.66z M378.16,281.52c-0.61,2.02-3.52,9.81-14.02,17.9
		c-11.32,8.72-34.17,19.47-78.85,21.57v-40.87c51.49-1.99,79.47-16.41,92.87-26.46V281.52z M378.16,232.39
		c-3.84,4.75-26.89,29.48-92.87,32.17v-42.32c51.49-1.99,79.47-16.41,92.87-26.46V232.39z M378.16,174.5
		c-3.83,4.75-26.86,29.44-92.87,32.14v-40.27c41.2-2.68,75.94-14.53,92.87-31.46V174.5z"/>
</g>
</svg>
