<?xml version="1.0" encoding="UTF-8" standalone="no"?>
<!DOCTYPE svg PUBLIC "-//W3C//DTD SVG 1.1//EN" "http://www.w3.org/Graphics/SVG/1.1/DTD/svg11.dtd">
<svg width="100%" height="100%" viewBox="0 0 834 600" version="1.1" xmlns="http://www.w3.org/2000/svg" xmlns:xlink="http://www.w3.org/1999/xlink" xml:space="preserve" xmlns:serif="http://www.serif.com/" style="fill-rule:evenodd;clip-rule:evenodd;stroke-linejoin:round;stroke-miterlimit:1.41421;">
    <g transform="matrix(1,0,0,1,0.000712688,0.000962688)">
        <g transform="matrix(1,0,0,1,-36.5,-146.5)">
            <g transform="matrix(0.0347847,0,0,-0.0379982,429.154,491.93)">
                <path d="M9177.4,-154.097C8946.47,-416.166 6467.15,-1113.88 6813.2,-1305.4C6584.7,-1472.9 6407.5,-1327.1 6389.8,-1565.5C6389.8,-1565.5 4214.02,-3198.66 823.05,-1479.98C823.05,-1479.98 824.4,-3687.3 863.8,-3777.9C926.8,-3923.7 1015.5,-4037.9 1155.4,-4154.2C1941.5,-4802.4 4175.5,-4995.4 5666.9,-4544.3C6372,-4329.5 6772,-3988.7 6807.4,-3571L6819.2,-3435.1L6900,-3425.3C6945.3,-3419.4 7065.5,-3403.6 7167.9,-3391.8C7459.5,-3356.3 7869.2,-3265.7 8129.3,-3181C8661.2,-3001.7 8974.5,-2779.1 9118.3,-2475.7L9177.4,-2353.6L9177.4,-154.097ZM8763.7,-1496.5C8763.7,-2227.4 8761.7,-2260.9 8722.3,-2343.6C8564.7,-2668.7 7875.2,-2916.9 6888.1,-3005.5L6813.2,-3011.4L6813.2,-1305.4C6836.9,-1299.5 6986.6,-1277.8 7089,-1266C7581.5,-1204.9 8145,-1041.4 8513.4,-852.3C8635.5,-791.2 8740,-738 8749.8,-736.1C8757.8,-736.1 8763.7,-1076.9 8763.7,-1496.5ZM6399.6,-2804.6C6399.6,-3312.9 6391.7,-3561.1 6376,-3614.3C6346.4,-3710.8 6214.4,-3860.6 6086.4,-3945.3C5412.6,-4374.8 3489.8,-4510.7 2256.6,-4213.2C1726.6,-4085.1 1383.9,-3900 1279.4,-3683.3C1240,-3600.6 1238,-3567.1 1238,-2846C1238,-2432.3 1241.9,-2093.4 1247.8,-2093.4C1253.7,-2093.4 1301,-2121 1356.2,-2154.5C1675.4,-2351.5 2294,-2532.8 2942.1,-2619.5C3312.5,-2668.7 4275.8,-2668.7 4646.2,-2619.5C5310.1,-2528.9 5976,-2331.9 6281.4,-2132.9C6330.7,-2101.4 6376,-2075.8 6385.8,-2075.8C6393.7,-2073.7 6399.6,-2402.8 6399.6,-2804.6Z" style="fill-rule:nonzero;stroke:black;stroke-width:27.45px;"/>
            </g>
        </g>
        <g transform="matrix(1,0,0,1,-36.5,-146.5)">
            <g transform="matrix(0.0347847,0,0,-0.0379982,429.075,408.427)">
                <path d="M5651,4998.8C4742.8,4927.9 3992.2,4713.1 3570.6,4401.9C3342.1,4234.4 3210.1,4015.8 3192.4,3777.4L3184.5,3645.4L3026.9,3631.6C2778.7,3611.9 2333.4,3529.2 2065.5,3454.3C1450.8,3284.9 1052.9,3030.7 891.3,2703.7L820.4,2561.8L822.4,-562.7C824.4,-3634.1 824.4,-3687.3 863.8,-3777.9C926.8,-3923.7 1015.5,-4037.9 1155.4,-4154.2C1941.5,-4802.4 4175.5,-4995.4 5666.9,-4544.3C6372,-4329.5 6772,-3988.7 6807.4,-3571L6819.2,-3435.1L6900,-3425.3C6945.3,-3419.4 7065.5,-3403.6 7167.9,-3391.8C7459.5,-3356.3 7869.2,-3265.7 8129.3,-3181C8661.2,-3001.7 8974.5,-2779.1 9118.3,-2475.7L9177.4,-2353.6L9179.4,767C9179.4,4226.4 9191.2,3946.7 9055.3,4145.7C8779.5,4553.5 8048.6,4849 7030.1,4969.2C6708.9,5006.7 5962.3,5022.5 5651,4998.8ZM6645.9,4585.1C7804.3,4516.1 8580.5,4258.1 8736.1,3885.7L8767.6,3806.9L8702.6,3751.7C8608,3669 8198.2,3475.9 7955.9,3395.1C7561.9,3267 7118.6,3184.3 6626.1,3148.8L6352.3,3127.1L6163.2,3223.6C5810.45,3405.42 5345.77,3534.13 4786.24,3607.07C4539.51,3639.23 4274.35,3660.55 3992.2,3670.8C3578.5,3686.6 3590.3,3680.7 3631.7,3838.3C3659.3,3948.6 3712.5,4017.6 3844.5,4120C4295.6,4461 5459.9,4654.1 6645.9,4585.1ZM8763.7,2534.3L8763.7,1764L8690.8,1697C8533.2,1551.2 8129.3,1381.8 7690,1273.4C7461.5,1218.2 6978.8,1137.5 6868.5,1137.5L6813.3,1137.5L6813.3,1823.1C6811.3,2441.7 6809.4,2516.6 6773.9,2615.1C6754.2,2674.2 6740.4,2725.4 6742.4,2727.4C6746.3,2731.3 6854.7,2747.1 6984.7,2762.9C7632.8,2843.7 8243.6,3015.1 8615.9,3223.9C8692.7,3267.2 8755.8,3302.7 8759.7,3302.7C8761.7,3304.6 8763.7,2957.8 8763.7,2534.3ZM4547.7,3223.8C5061.9,3178.5 5570.2,3070.1 5875.5,2940.1C6135.6,2827.8 6379.9,2601.2 6379.9,2471.2C6379.9,2390.4 5911,2142.2 5522.9,2018.1C4498.5,1689.1 3083.9,1693 2045.7,2026C1809.3,2100.9 1409.4,2295.9 1308.9,2382.6C1232.1,2449.6 1232.1,2449.6 1257.7,2526.4C1318.8,2709.6 1598.5,2900.7 1986.6,3024.8C2621,3225.8 3619.8,3304.6 4547.7,3223.8ZM6395.7,1194.6L6389.8,444L6334.6,398.7C6208.5,288.4 5891.3,130.8 5589.9,28.3C4634.4,-300.7 3223.9,-326.3 2193.5,-32.8C1842.8,67.7 1421.2,262.7 1291.2,384.8L1238,436L1238,1180.7C1238,1590.5 1241.9,1925.4 1245.9,1925.4C1251.8,1925.4 1322.7,1888 1405.5,1844.6C2597.4,1200.4 4979.2,1196.5 6173.1,1836.7C6281.5,1893.8 6378,1941.1 6385.9,1943.1C6393.7,1945.2 6399.6,1608.3 6395.7,1194.6ZM8763.7,520.8C8763.7,-119.5 8759.8,-239.6 8734.1,-275.1C8643.5,-405.1 8190.4,-612 7755,-722.3C7497,-789.2 7010.3,-872 6878.3,-872L6813.3,-872L6813.3,-84C6813.3,530.7 6819.2,706 6838.9,711.9C6850.7,715.8 6972.8,733.6 7108.8,751.3C7623,818.3 8145,970 8515.4,1159.1C8635.6,1220.2 8740,1271.4 8749.8,1273.4C8757.8,1273.4 8763.7,936.5 8763.7,520.8ZM6395.7,-814.9L6389.8,-1565.5L6311,-1632.5C6214.5,-1715.2 5857.9,-1892.5 5627.4,-1973.3C4756.6,-2276.7 3487.9,-2335.8 2498.9,-2121.1C2032,-2018.7 1506,-1807.9 1320.8,-1648.3L1238.1,-1577.4L1238.1,-830.7C1238.1,-420.9 1242,-84 1246,-84C1249.9,-84 1305.1,-113.6 1370.1,-149C1758.2,-369.7 2347.2,-535.1 3040.7,-619.9C3369.7,-659.3 4311.4,-653.4 4636.5,-608.1C5306.3,-517.5 5824.5,-367.7 6212.6,-155C6299.3,-107.7 6378.1,-66.3 6386,-66.3C6393.7,-64.3 6397.7,-401.1 6395.7,-814.9ZM8763.7,-1496.5C8763.7,-2227.4 8761.7,-2260.9 8722.3,-2343.6C8564.7,-2668.7 7875.2,-2916.9 6888.1,-3005.5L6813.2,-3011.4L6813.2,-1305.4L6858.5,-1297.5C6882.2,-1291.6 6986.6,-1277.8 7089,-1266C7581.5,-1204.9 8145,-1041.4 8513.4,-852.3C8635.5,-791.2 8740,-738 8749.8,-736.1C8757.8,-736.1 8763.7,-1076.9 8763.7,-1496.5ZM6399.6,-2804.6C6399.6,-3312.9 6391.7,-3561.1 6376,-3614.3C6346.4,-3710.8 6214.4,-3860.6 6086.4,-3945.3C5412.6,-4374.8 3489.8,-4510.7 2256.6,-4213.2C1726.6,-4085.1 1383.9,-3900 1279.4,-3683.3C1240,-3600.6 1238,-3567.1 1238,-2846C1238,-2432.3 1241.9,-2093.4 1247.8,-2093.4C1253.7,-2093.4 1301,-2121 1356.2,-2154.5C1675.4,-2351.5 2294,-2532.8 2942.1,-2619.5C3312.5,-2668.7 4275.8,-2668.7 4646.2,-2619.5C5310.1,-2528.9 5976,-2331.9 6281.4,-2132.9C6330.7,-2101.4 6376,-2075.8 6385.8,-2075.8C6393.7,-2073.7 6399.6,-2402.8 6399.6,-2804.6Z" style="fill-rule:nonzero;stroke:black;stroke-width:27.45px;"/>
            </g>
        </g>
        <g transform="matrix(1,0,0,1,-36.5,-146.5)">
            <g transform="matrix(0.0347847,0,0,-0.0379982,118.154,491.93)">
                <path d="M9177.4,-154.097C8946.47,-416.166 6467.15,-1113.88 6813.2,-1305.4C6584.7,-1472.9 6407.5,-1327.1 6389.8,-1565.5C6389.8,-1565.5 4214.02,-3198.66 823.05,-1479.98C823.05,-1479.98 824.4,-3687.3 863.8,-3777.9C926.8,-3923.7 1015.5,-4037.9 1155.4,-4154.2C1941.5,-4802.4 4175.5,-4995.4 5666.9,-4544.3C6372,-4329.5 6772,-3988.7 6807.4,-3571L6819.2,-3435.1L6900,-3425.3C6945.3,-3419.4 7065.5,-3403.6 7167.9,-3391.8C7459.5,-3356.3 7869.2,-3265.7 8129.3,-3181C8661.2,-3001.7 8974.5,-2779.1 9118.3,-2475.7L9177.4,-2353.6L9177.4,-154.097ZM8763.7,-1496.5C8763.7,-2227.4 8761.7,-2260.9 8722.3,-2343.6C8564.7,-2668.7 7875.2,-2916.9 6888.1,-3005.5L6813.2,-3011.4L6813.2,-1305.4C6836.9,-1299.5 6986.6,-1277.8 7089,-1266C7581.5,-1204.9 8145,-1041.4 8513.4,-852.3C8635.5,-791.2 8740,-738 8749.8,-736.1C8757.8,-736.1 8763.7,-1076.9 8763.7,-1496.5ZM6399.6,-2804.6C6399.6,-3312.9 6391.7,-3561.1 6376,-3614.3C6346.4,-3710.8 6214.4,-3860.6 6086.4,-3945.3C5412.6,-4374.8 3489.8,-4510.7 2256.6,-4213.2C1726.6,-4085.1 1383.9,-3900 1279.4,-3683.3C1240,-3600.6 1238,-3567.1 1238,-2846C1238,-2432.3 1241.9,-2093.4 1247.8,-2093.4C1253.7,-2093.4 1301,-2121 1356.2,-2154.5C1675.4,-2351.5 2294,-2532.8 2942.1,-2619.5C3312.5,-2668.7 4275.8,-2668.7 4646.2,-2619.5C5310.1,-2528.9 5976,-2331.9 6281.4,-2132.9C6330.7,-2101.4 6376,-2075.8 6385.8,-2075.8C6393.7,-2073.7 6399.6,-2402.8 6399.6,-2804.6Z" style="fill-rule:nonzero;stroke:black;stroke-width:27.45px;"/>
            </g>
        </g>
        <g transform="matrix(1,0,0,1,-36.5,-146.5)">
            <g transform="matrix(0.0347847,0,0,-0.0379982,118.075,408.427)">
                <path d="M5651,4998.8C4742.8,4927.9 3992.2,4713.1 3570.6,4401.9C3342.1,4234.4 3210.1,4015.8 3192.4,3777.4L3184.5,3645.4L3026.9,3631.6C2778.7,3611.9 2333.4,3529.2 2065.5,3454.3C1450.8,3284.9 1052.9,3030.7 891.3,2703.7L820.4,2561.8L822.4,-562.7C824.4,-3634.1 824.4,-3687.3 863.8,-3777.9C926.8,-3923.7 1015.5,-4037.9 1155.4,-4154.2C1941.5,-4802.4 4175.5,-4995.4 5666.9,-4544.3C6372,-4329.5 6772,-3988.7 6807.4,-3571L6819.2,-3435.1L6900,-3425.3C6945.3,-3419.4 7065.5,-3403.6 7167.9,-3391.8C7459.5,-3356.3 7869.2,-3265.7 8129.3,-3181C8661.2,-3001.7 8974.5,-2779.1 9118.3,-2475.7L9177.4,-2353.6L9179.4,767C9179.4,4226.4 9191.2,3946.7 9055.3,4145.7C8779.5,4553.5 8048.6,4849 7030.1,4969.2C6708.9,5006.7 5962.3,5022.5 5651,4998.8ZM6645.9,4585.1C7804.3,4516.1 8580.5,4258.1 8736.1,3885.7L8767.6,3806.9L8702.6,3751.7C8608,3669 8198.2,3475.9 7955.9,3395.1C7561.9,3267 7118.6,3184.3 6626.1,3148.8L6352.3,3127.1L6163.2,3223.6C5810.45,3405.42 5345.77,3534.13 4786.24,3607.07C4539.51,3639.23 4274.35,3660.55 3992.2,3670.8C3578.5,3686.6 3590.3,3680.7 3631.7,3838.3C3659.3,3948.6 3712.5,4017.6 3844.5,4120C4295.6,4461 5459.9,4654.1 6645.9,4585.1ZM8763.7,2534.3L8763.7,1764L8690.8,1697C8533.2,1551.2 8129.3,1381.8 7690,1273.4C7461.5,1218.2 6978.8,1137.5 6868.5,1137.5L6813.3,1137.5L6813.3,1823.1C6811.3,2441.7 6809.4,2516.6 6773.9,2615.1C6754.2,2674.2 6740.4,2725.4 6742.4,2727.4C6746.3,2731.3 6854.7,2747.1 6984.7,2762.9C7632.8,2843.7 8243.6,3015.1 8615.9,3223.9C8692.7,3267.2 8755.8,3302.7 8759.7,3302.7C8761.7,3304.6 8763.7,2957.8 8763.7,2534.3ZM4547.7,3223.8C5061.9,3178.5 5570.2,3070.1 5875.5,2940.1C6135.6,2827.8 6379.9,2601.2 6379.9,2471.2C6379.9,2390.4 5911,2142.2 5522.9,2018.1C4498.5,1689.1 3083.9,1693 2045.7,2026C1809.3,2100.9 1409.4,2295.9 1308.9,2382.6C1232.1,2449.6 1232.1,2449.6 1257.7,2526.4C1318.8,2709.6 1598.5,2900.7 1986.6,3024.8C2621,3225.8 3619.8,3304.6 4547.7,3223.8ZM6395.7,1194.6L6389.8,444L6334.6,398.7C6208.5,288.4 5891.3,130.8 5589.9,28.3C4634.4,-300.7 3223.9,-326.3 2193.5,-32.8C1842.8,67.7 1421.2,262.7 1291.2,384.8L1238,436L1238,1180.7C1238,1590.5 1241.9,1925.4 1245.9,1925.4C1251.8,1925.4 1322.7,1888 1405.5,1844.6C2597.4,1200.4 4979.2,1196.5 6173.1,1836.7C6281.5,1893.8 6378,1941.1 6385.9,1943.1C6393.7,1945.2 6399.6,1608.3 6395.7,1194.6ZM8763.7,520.8C8763.7,-119.5 8759.8,-239.6 8734.1,-275.1C8643.5,-405.1 8190.4,-612 7755,-722.3C7497,-789.2 7010.3,-872 6878.3,-872L6813.3,-872L6813.3,-84C6813.3,530.7 6819.2,706 6838.9,711.9C6850.7,715.8 6972.8,733.6 7108.8,751.3C7623,818.3 8145,970 8515.4,1159.1C8635.6,1220.2 8740,1271.4 8749.8,1273.4C8757.8,1273.4 8763.7,936.5 8763.7,520.8ZM6395.7,-814.9L6389.8,-1565.5L6311,-1632.5C6214.5,-1715.2 5857.9,-1892.5 5627.4,-1973.3C4756.6,-2276.7 3487.9,-2335.8 2498.9,-2121.1C2032,-2018.7 1506,-1807.9 1320.8,-1648.3L1238.1,-1577.4L1238.1,-830.7C1238.1,-420.9 1242,-84 1246,-84C1249.9,-84 1305.1,-113.6 1370.1,-149C1758.2,-369.7 2347.2,-535.1 3040.7,-619.9C3369.7,-659.3 4311.4,-653.4 4636.5,-608.1C5306.3,-517.5 5824.5,-367.7 6212.6,-155C6299.3,-107.7 6378.1,-66.3 6386,-66.3C6393.7,-64.3 6397.7,-401.1 6395.7,-814.9ZM8763.7,-1496.5C8763.7,-2227.4 8761.7,-2260.9 8722.3,-2343.6C8564.7,-2668.7 7875.2,-2916.9 6888.1,-3005.5L6813.2,-3011.4L6813.2,-1305.4L6858.5,-1297.5C6882.2,-1291.6 6986.6,-1277.8 7089,-1266C7581.5,-1204.9 8145,-1041.4 8513.4,-852.3C8635.5,-791.2 8740,-738 8749.8,-736.1C8757.8,-736.1 8763.7,-1076.9 8763.7,-1496.5ZM6399.6,-2804.6C6399.6,-3312.9 6391.7,-3561.1 6376,-3614.3C6346.4,-3710.8 6214.4,-3860.6 6086.4,-3945.3C5412.6,-4374.8 3489.8,-4510.7 2256.6,-4213.2C1726.6,-4085.1 1383.9,-3900 1279.4,-3683.3C1240,-3600.6 1238,-3567.1 1238,-2846C1238,-2432.3 1241.9,-2093.4 1247.8,-2093.4C1253.7,-2093.4 1301,-2121 1356.2,-2154.5C1675.4,-2351.5 2294,-2532.8 2942.1,-2619.5C3312.5,-2668.7 4275.8,-2668.7 4646.2,-2619.5C5310.1,-2528.9 5976,-2331.9 6281.4,-2132.9C6330.7,-2101.4 6376,-2075.8 6385.8,-2075.8C6393.7,-2073.7 6399.6,-2402.8 6399.6,-2804.6Z" style="fill-rule:nonzero;stroke:black;stroke-width:27.45px;"/>
            </g>
        </g>
        <g transform="matrix(1,0,0,1,-36.5,-146.5)">
            <g transform="matrix(1,0,0,1,-50,41)">
                <path d="M919,112.75C919,109.025 915.975,106 912.25,106L93.75,106C90.025,106 87,109.025 87,112.75L87,126.25C87,129.975 90.025,133 93.75,133L912.25,133C915.975,133 919,129.975 919,126.25L919,112.75Z" style="stroke:black;stroke-width:1px;stroke-linecap:round;stroke-miterlimit:1.5;"/>
            </g>
        </g>
        <g transform="matrix(1,0,0,1,-36.5,-146.5)">
            <g transform="matrix(1,0,0,1,-50,612)">
                <path d="M919,112.75C919,109.025 915.975,106 912.25,106L93.75,106C90.025,106 87,109.025 87,112.75L87,126.25C87,129.975 90.025,133 93.75,133L912.25,133C915.975,133 919,129.975 919,126.25L919,112.75Z" style="stroke:black;stroke-width:1px;stroke-linecap:round;stroke-miterlimit:1.5;"/>
            </g>
        </g>
        <g transform="matrix(1,0,0,1,-36.5,-146.5)">
            <g transform="matrix(4.40107e-17,-0.71875,1,6.12323e-17,736,807.531)">
                <path d="M919,112.75C919,109.025 914.792,106 909.609,106L96.391,106C91.208,106 87,109.025 87,112.75L87,126.25C87,129.975 91.208,133 96.391,133L909.609,133C914.792,133 919,129.975 919,126.25L919,112.75Z" style="stroke:black;stroke-width:1.15px;stroke-linecap:round;stroke-miterlimit:1.5;"/>
            </g>
        </g>
        <g transform="matrix(1,0,0,1,-36.5,-146.5)">
            <g transform="matrix(4.40107e-17,-0.71875,1,6.12323e-17,-69,807.531)">
                <path d="M919,112.75C919,109.025 914.792,106 909.609,106L96.391,106C91.208,106 87,109.025 87,112.75L87,126.25C87,129.975 91.208,133 96.391,133L909.609,133C914.792,133 919,129.975 919,126.25L919,112.75Z" style="stroke:black;stroke-width:1.15px;stroke-linecap:round;stroke-miterlimit:1.5;"/>
            </g>
        </g>
    </g>
</svg>
