<?xml version="1.0" standalone="no"?>
<!DOCTYPE svg PUBLIC "-//W3C//DTD SVG 20010904//EN"
 "http://www.w3.org/TR/2001/REC-SVG-20010904/DTD/svg10.dtd">
<svg version="1.0" xmlns="http://www.w3.org/2000/svg"
 width="700.000000pt" height="700.000000pt" viewBox="0 0 700.000000 700.000000"
 preserveAspectRatio="xMidYMid meet">
<metadata>
Created by potrace 1.11, written by Peter Selinger 2001-2013
</metadata>
<g transform="translate(0.000000,700.000000) scale(0.100000,-0.100000)"
fill="#000000" stroke="none">
<path d="M3468 6575 c-2 -1 -68 -5 -148 -9 -80 -3 -158 -7 -175 -10 -16 -3
-52 -7 -80 -10 -27 -4 -61 -8 -75 -10 -48 -9 -95 -17 -125 -22 -16 -3 -57 -12
-90 -21 -33 -8 -67 -16 -75 -18 -8 -2 -33 -8 -55 -14 -22 -6 -42 -10 -45 -10
-3 1 -21 -5 -40 -13 -19 -8 -39 -16 -45 -18 -5 -1 -21 -7 -35 -12 -14 -5 -33
-11 -42 -13 -59 -12 -448 -189 -456 -207 -2 -5 -7 -8 -12 -8 -9 0 -132 -71
-140 -81 -3 -3 -16 -12 -30 -19 -24 -12 -183 -124 -207 -145 -6 -5 -26 -21
-44 -35 -82 -62 -196 -167 -303 -279 -108 -111 -126 -131 -126 -136 0 -3 -8
-13 -17 -24 -144 -152 -367 -516 -467 -761 -15 -36 -31 -74 -37 -85 -8 -17
-71 -201 -84 -245 -8 -28 -36 -135 -40 -155 -15 -66 -45 -216 -50 -250 -4 -22
-9 -55 -11 -73 -13 -83 -16 -165 -17 -392 0 -288 5 -356 38 -545 26 -153 99
-429 126 -477 5 -10 9 -26 9 -36 0 -10 4 -22 8 -27 5 -6 24 -48 42 -95 50
-130 149 -323 243 -475 7 -10 50 -73 97 -140 82 -115 114 -157 153 -197 9 -10
17 -20 17 -23 0 -13 213 -230 290 -296 29 -24 63 -54 77 -67 36 -33 209 -162
273 -203 264 -172 488 -278 775 -369 84 -27 153 -46 200 -57 87 -19 109 -23
160 -33 28 -5 66 -11 85 -14 19 -3 45 -8 57 -10 21 -4 126 -15 213 -22 61 -4
343 -4 405 0 93 7 220 21 275 30 19 3 49 8 65 10 17 2 41 6 55 10 14 3 36 8
50 11 95 19 134 28 205 50 44 13 82 24 85 23 3 0 23 7 45 17 22 9 47 18 55 20
86 21 390 162 526 245 36 22 68 40 70 40 9 0 175 118 257 182 111 87 133 105
243 209 55 51 183 187 221 234 18 22 44 54 58 70 66 78 165 223 241 350 67
113 214 407 214 429 0 3 5 17 12 33 6 15 12 33 14 38 2 6 12 35 23 66 25 70
72 227 76 254 2 11 4 20 5 20 1 0 3 7 5 15 23 111 35 171 40 200 3 19 7 46 10
60 20 103 30 267 30 465 -1 156 -9 330 -15 330 -1 0 -3 16 -5 35 -5 66 -17
135 -42 250 -13 63 -26 125 -28 137 -2 12 -6 26 -9 31 -3 5 -8 23 -11 40 -3
17 -28 95 -56 174 -28 79 -51 149 -51 156 -1 6 -4 12 -8 12 -3 0 -12 17 -19
38 -15 41 -122 264 -131 272 -4 3 -16 25 -29 50 -30 59 -171 274 -182 278 -5
2 -9 8 -9 13 0 5 -6 17 -14 26 -8 10 -49 61 -92 113 -105 130 -328 350 -456
450 -10 8 -31 25 -46 38 -15 13 -39 30 -54 38 -16 8 -28 19 -28 24 0 5 -10 12
-22 16 -12 3 -28 12 -35 18 -34 30 -43 36 -43 29 0 -4 -4 -2 -9 5 -4 8 -42 33
-82 57 -90 53 -389 206 -389 199 0 -3 -10 1 -22 8 -42 23 -339 126 -387 134
-14 3 -37 8 -51 13 -14 5 -50 14 -80 20 -30 6 -68 13 -85 17 -141 28 -264 43
-435 50 -63 2 -123 6 -132 8 -9 2 -18 3 -20 1z"/>
</g>
</svg>
