<svg xmlns="http://www.w3.org/2000/svg" viewBox="0 0 85.21 69.61"><defs><style>.cls-1{fill:#fff;}</style></defs><title>TrueCommand_Logomark_White</title><g id="Layer_2" data-name="Layer 2"><g id="Layer_1-2" data-name="Layer 1"><polygon class="cls-1" points="57.57 0.62 59.29 0.62 59.29 5.21 59.98 5.21 59.98 0.62 61.7 0.62 61.7 0 57.57 0 57.57 0.62"/><path class="cls-1" d="M66.43,0,65.18,3.63c-.13.37-.22.64-.28.83-.05-.17-.14-.43-.25-.77L63.41,0h-1V5.21H63V.77l1.51,4.44h.62L66.68.85V5.21h.67V0Z"/><path class="cls-1" d="M84.25,31.88v0Z"/><path class="cls-1" d="M85,31.81a.35.35,0,0,0-.27-.3h-.13a.38.38,0,0,0-.34.38v0s-1.16,7.25-5.41,8.51c-3.26,1-5.74-1.72-6.9-4C64.92,23.29,55.85,6.56,52.69.74A1.39,1.39,0,0,0,50.28.67L25,34.81C13.15,51.07,2.74,47.83,1.14,46.88a.76.76,0,0,0-1.09.92c2.46,6.87,8.46,9,14.42,9.23A22.59,22.59,0,0,0,31.64,50.4c6.29-5.76,11-12.78,18.27-12.71a11.69,11.69,0,1,1-.64,23.37,11.54,11.54,0,0,1-5.45-1.62.76.76,0,0,0-1.09.92c2.46,6.88,8.46,9,14.42,9.23,12.52.53,19.37-8.25,22.19-13.11A35.31,35.31,0,0,0,83.68,47,39.44,39.44,0,0,0,85,31.81Z"/></g></g></svg>